<?xml version="1.0" encoding="UTF-8"?>
<svg version="1.1" viewBox="0 0 2048 2048" width="1280" height="1280" xmlns="http://www.w3.org/2000/svg">
<path transform="translate(1586,173)" d="m0 0h34l39 1 10 2 9 6 5 7 2 11 1 48v18l77 2 3 1 1 2v27l-1 129 80 2 1 1v251l29 1 50 1 1 1v62l-1 1-16 1-62 1-1 46v47l42 1 37 1 1 1v74l-3 2-49 1-107 1-1 21v56l-1 1-14 1-45 1h-20v60l-1 355h20l60 2 1 1-1 238h21l54 1 6 2-1 169-14 5 1 4 5 5 6 4 2 2 1 8 1 34-2 5-5 1-79 1h-70l-6-2-1-64-65-1-13-2-6-8-5-4-3-6-1-9-1-62-1-2-5 1-7 8-7 3-6 1h-32l-6-2-10-11-4-4-1-5v-72h-240l-1 238-1 1-13 1-73 1h-72l-2-3v-63l-60-1-19-2-8-9-4-4-2-11-1-21-1-127h-22l-30 2-13 3-11 7-2 4v75l-1 148-4 1-92 1h-63l-2-5v-62l-72 1-6-1-2-13-1-59-4-8-7-8-7-4-7-1h-52l-1-2-1-9-1-40-2-13-4-6-7-9-10-1-72-1h-82l-52 1-10 2-7 6-4 6-1 3-1 24-1 109v87l-6 2-90 1h-63l-2-2-1-64h-72l-6-1-1-3-1-20v-320l1-53 1-17 1-2h54l8-3 10-9 4-6 2-10 1-63 1-2h71l6-2v-553l1-70 1-28 1-3 77-1 1-4 1-67 1-8 6-1h152v-160h-77l-2-3v-143l1-13 2-2 130-1 11-1 4-1 2-5 3-3 6 1 10 9 3 3 1 7 1 71h28l47 1 6 2v42l-1 287-4 2-75 1-1 78-2 1-62 1h-96v57l-1 105 102-1h295l4-1v-427l1-54 1-12 1-1h70l6-1 1-7 2-69 1-3 6-1h66l4-1 1-5 2-58 2-10 5-8 6-7 6-2 8 4 4 5 10 2h31l5-2 2-3v-56l3-12 6-10 9-9 21-1h135l1 1 1 61 3 14 6 8 7 5 12 3 25 2 25 1 1 1 1 76h76l2-1 1-16 1-43 1-16 2-2h19l51-1 4-2 1-3 2-61 4-11 9-11 6-4 13-1z" fill="#383939"/>
<path transform="translate(1586,173)" d="m0 0h34l39 1 10 2 9 6 5 7 2 11 1 48v18l77 2 3 1 1 2v27l-1 129 80 2 1 1v251l29 1 50 1 1 1v62l-1 1-16 1-62 1-1 46v47l42 1 37 1 1 1v74l-3 2-49 1-107 1-1 21v56l-1 1-14 1-45 1h-20v60l-1 355h20v1l-23 1v-3-1l-1-5-2-70-1 26-2-3-2-47-1-10v-24l-1-18v-80l2-31 1-30 1-26-1-7-3-1-3 3-5 1h-39l-4-1-12 1-12-1-1 1-15 1h-19l-2 1-6-1h-9l-5 2h-12v2h-2v3l-5 2-3 3-3 1-1 19-1 38-4 2-18 1h-57l-2-3h-15l-9-1-13-3-6-2v-2h-22l-7-3-2-5-1-6-2-14-2-5-2-20v-9l-10 1-6 1-8-3-11 1-7 2-4-2-1-1-12 1-13 2-5-3h-5l-3 3-6-1-2-1h-9l-3 2-5-1-4-2h-11l-3 2h-5l-2-2h-10l-3 1-3-1h-42l-17-1-30-2-44-4-51-3-58-5-13-2-1-1-3-67-1-5-15-1-19-1h-18l-52-1-119 1h-38l-114 1h-51l-56-1-6-1-1-18-2-39-2-18-6-4-8 2h-119l-15 1-2 2-2 9-2 14 1 6-1 9v11l-1 8v28l-1 8 1 7-1 5v60l1 6v16l-1 13v20l1 3-2 2-2 4-2-18v-48l-1-2h2l-1-9-1-5 2-2h-2l1-6-1-5 1-5v-8l-1-5v-6h2l-1-9v-38l1-28-1-29h2l-1-7 5-9 4-9 2-9 5-10 2-3-10-1-2 4-1 17-2 9h-1v-22l1-1v-9l1-13v-46l-1-7 1-11v-15l-1-5v-13l1-11-1-18 1-9 1-19 3-15 4-6 8-4 11-9 10-4 3 1-3 5-5 4v6l-2 2-7 2v2l-5 4-5 10h-4l-3 12-2 5v6l2 3 1 9h-3l-1 14 3 1-1 4-1 5v4h2l2 6h-5l2 7 2 3 7-3v9l-2 3 1 5-1 4h3l-1 6h-2l4 13 1-2v-9l-1-5 1-5-1-6v-19l-1-10-1-16v-8l1-8-3-9 3-10 1-9 9-11 9-10 3-2 3-6 6-4 1-2 5-2 2-2 3 2 4-3h-70v654l-5 2-26 1h-50v10h-1v-14l1-2h71l6-2v-553l1-70 1-28 1-3 77-1 1-4 1-67 1-8 6-1h152v-160h-77l-2-3v-143l1-13 2-2 130-1 11-1 4-1 2-5 3-3 6 1 10 9 3 3 1 7 1 71h28l47 1 6 2v42l-1 287-4 2-75 1-1 78-2 1-62 1h-96v57l-1 105 102-1h295l4-1v-427l1-54 1-12 1-1h70l6-1 1-7 2-69 1-3 6-1h66l4-1 1-5 2-58 2-10 5-8 6-7 6-2 8 4 4 5 10 2h31l5-2 2-3v-56l3-12 6-10 9-9 21-1h135l1 1 1 61 3 14 6 8 7 5 12 3 25 2 25 1 1 1 1 76h76l2-1 1-16 1-43 1-16 2-2h19l51-1 4-2 1-3 2-61 4-11 9-11 6-4 13-1z" fill="#383939"/>
<path transform="translate(594,256)" d="m0 0 6 1 10 9 3 3 1 7 1 71h28l47 1 6 2v42l-1 287-4 2-75 1-1 78-2 1-62 1h-96v57l-1 105 102-1h295l9-2 102-3 64-1 1-4-1-1 1-4h3l2-3v-3h-3l-3 4v-15h4l2-8h2l-1 7 4-4-1-11 1-6v-7l-1-1-1-10 4 4v-5l3 1 4 8 3 11 3 7v5l-3 1-1 3 5 1 3 3-1 2-5-2-1 4h5l2-1-2 5-4 1-2 5-3 1h-1l2 2h-6l10 2h2 7l3 2 6-1 2-1h14v-2l12 2 5 5 2 6 3 6-1 6 3 8 2 14v34l2 7 2 1 1-3 9-1v-2l5-2 1-3h6v-3l-5-4v-5h2l2 5 7 1 3 2v2l6 1-2-4-3-1v-7h3l1 3 10 3 6 5 6-1 4-3v2l3-1 2 2-1 3h-4v3l7 1h9l-1-3 4-5h2l2 6-1 3 9-2 4-1v3l8-1h9l18-2 3-1 4 2 7-1 7 1h15l15-1 5 1 1-1h18l15 2 8-1 11 1h8l7-1 2 1h22l6-1 3-1 11 1 14-1 1 2 3-2h12l4-1 2 2 10-1 7-1 7 1 8-2 4 1 1-3 4 3 12 1 4-1 12 1 5-1 4 1 2-1-1-8h-7l-7-4-5-3v5l-4 3-5-2-3-1-9 2-9-4h-5l-2 8-3-2-3-9h-7l-2 2-1 2-4-1 1-4-7 3-7-2-9-2v-1l12-1 3 1-1-3 8 1-5-2-10-1-1-2v5l-5-1-3-2-1-5v-3l2-1v2h2l2 2 1-2h2v-2l5-1v-2l4 1 1 4-3 1v2l4-4h5l2 2 4 1 2-4h4l2 5h4v-2l10-2 10 2 3 1v2h6l5-1v-2l4-1h6l6-3 7 1 5 3 13 1 5-1 9-2 4 2 6-2 2 4 4 2 3-3h2v-3l6-1 2 4-2 2h-3l1 2h5l3-1 1-2 10-2v2l5 1 3-2 1 5 5 2 8-2 4 2 2 3h8l3 4-6 2h-2v-2l-5-1-2-1-3 2-3-1v-4l-2 1v4l1 8-1 3 2 2 5 2 4 2h5l3-2h7l-1 2 7 2 6-1v-4l-3-1 2-2 6 3 2 5 12 1 6 4-1 4 3 2h-2l-2 59-1 19-1 287-2-3-2-47-1-10v-24l-1-18v-80l2-31 1-30 1-26-1-7-3-1-3 3-5 1h-39l-4-1-12 1-12-1-1 1-15 1h-19l-2 1-6-1h-9l-5 2h-12v2h-2v3l-5 2-3 3-3 1-1 19-1 38-4 2-18 1h-57l-2-3h-15l-9-1-13-3-6-2v-2h-22l-7-3-2-5-1-6-2-14-2-5-2-20v-9l-10 1-6 1-8-3-11 1-7 2-4-2-1-1-12 1-13 2-5-3h-5l-3 3-6-1-2-1h-9l-3 2-5-1-4-2h-11l-3 2h-5l-2-2h-10l-3 1-3-1h-42l-17-1-30-2-44-4-51-3-58-5-13-2-1-1-3-67-1-5-15-1-19-1h-18l-52-1-119 1h-38l-114 1h-51l-56-1-6-1-1-18-2-39-2-18-6-4-8 2h-119l-15 1-2 2-2 9-2 14 1 6-1 9v11l-1 8v28l-1 8 1 7-1 5v60l1 6v16l-1 13v20l1 3-2 2-2 4-2-18v-48l-1-2h2l-1-9-1-5 2-2h-2l1-6-1-5 1-5v-8l-1-5v-6h2l-1-9v-38l1-28-1-29h2l-1-7 5-9 4-9 2-9 5-10 2-3-10-1-2 4-1 17-2 9h-1v-22l1-1v-9l1-13v-46l-1-7 1-11v-15l-1-5v-13l1-11-1-18 1-9 1-19 3-15 4-6 8-4 11-9 10-4 3 1-3 5-5 4v6l-2 2-7 2v2l-5 4-5 10h-4l-3 12-2 5v6l2 3 1 9h-3l-1 14 3 1-1 4-1 5v4h2l2 6h-5l2 7 2 3 7-3v9l-2 3 1 5-1 4h3l-1 6h-2l4 13 1-2v-9l-1-5 1-5-1-6v-19l-1-10-1-16v-8l1-8-3-9 3-10 1-9 9-11 9-10 3-2 3-6 6-4 1-2 5-2 2-2 3 2 4-3h-70v654l-5 2-26 1h-50v10h-1v-14l1-2h71l6-2v-553l1-70 1-28 1-3 77-1 1-4 1-67 1-8 6-1h152v-160h-77l-2-3v-143l1-13 2-2 130-1 11-1 4-1 2-5z" fill="#262626"/>
<path transform="translate(312,673)" d="m0 0h43l-4 4-3 1-3-2v2l-6 1-2 4-5 3-3 6-8 7-12 15-2 14-2 7 3 7-1 16 2 32v15l1 5-1 6 1 3v9l-1 5-2-3-3-13h2l1-6h-3v-8-3l1-1v-8l-7 3-3-5v-6l4-2-1-4h-2l-1-8 2-4-3-4 1-10 1-2h3l-2-9-2-4v-7l3-5 2-10 5-1 5-10 3-3h2v-2l8-4v-6l4-4h2l1-4-1-1-10 4-11 9-9 5-3 8-2 11-1 24-1 5 1 19-1 10v14l1 5v14l-1 11 1 11v48l-1 9v7h-2l1 5v11l1-3v-8l2-12 2-2 10 2-1 4-3 4-3 7-1 7-4 9-5 10v6h-2l1 3 1 27-1 34v40l-1 4v6l1 5v8 4 7 1l-1 3 1 1v63l1 12 3 1v17l1 5-1 10 2 13v13l3 17v10l1 14-2 6 1 1v13l-1 8-1 10-2 5-1 21-1 5 1 9 6 2 13 1 50 1 1 2 1 17 2 77v14l1 41 1 12 67 4 8 1 2 6 3 32 2 30 2 7 4 3v2h2v2l4 2 5 8v7l7 3 5 6 1 4 4 1h11l8 4 12 4 4 6 5 2 7 10 2 3v8h6l9 2 20 1 24 3 4 2h-158l-52 1-10 2-7 6-4 6-1 3-1 24-1 109v87l-6 2-90 1h-63l-2-2-1-64h-72l-6-1-1-3-1-20v-320l1-53 1-17 1-2h54l8-3 10-9 4-6 2-10 1-49 1-10 50-1 26-1 4-1v-61l1-593z" fill="#262626"/>
<path transform="translate(1039,850)" d="m0 0 3 1 4 8 3 11 3 7v5l-3 1-1 3 5 1 3 3-1 2-5-2-1 4h5l2-1-2 5-4 1-2 5-3 1h-1l2 2h-6l10 2h2 7l3 2 6-1 2-1h14v-2l12 2 5 5 2 6 3 6-1 6 3 8 2 14v34l2 7 2 1 1-3 9-1v-2l5-2 1-3h6v-3l-5-4v-5h2l2 5 7 1 3 2v2l6 1-2-4-3-1v-7h3l1 3 10 3 6 5 6-1 4-3v2l3-1 2 2-1 3h-4v3l7 1h9l-1-3 4-5h2l2 6-1 3 9-2 4-1v3l8-1h9l18-2 3-1 4 2 7-1 7 1h15l15-1 5 1 1-1h18l15 2 8-1 11 1h8l7-1 2 1h22l6-1 3-1 11 1 14-1 1 2 3-2h12l4-1 2 2 10-1 7-1 7 1 8-2 4 1 1-3 4 3 12 1 4-1 12 1 5-1 4 1 2-1-1-8h-7l-7-4-5-3v5l-4 3-5-2-3-1-9 2-9-4h-5l-2 8-3-2-3-9h-7l-2 2-1 2-4-1 1-4-7 3-7-2-9-2v-1l12-1 3 1-1-3 8 1-5-2-10-1-1-2v5l-5-1-3-2-1-5v-3l2-1v2h2l2 2 1-2h2v-2l5-1v-2l4 1 1 4-3 1v2l4-4h5l2 2 4 1 2-4h4l2 5h4v-2l10-2 10 2 3 1v2h6l5-1v-2l4-1h6l6-3 7 1 5 3 13 1 5-1 9-2 4 2 6-2 2 4 4 2 3-3h2v-3l6-1 2 4-2 2h-3l1 2h5l3-1 1-2 10-2v2l5 1 3-2 1 5 5 2 8-2 4 2 2 3h8l3 4-6 2h-2v-2l-5-1-2-1-3 2-3-1v-4l-2 1v4l1 8-1 3 2 2 5 2 4 2h5l3-2h7l-1 2 7 2 6-1v-4l-3-1 2-2 6 3 2 5 12 1 6 4-1 4 3 2h-2l-2 59-1 19-1 287-2-3-2-47-1-10v-24l-1-18v-80l2-31 1-30 1-26-1-7-3-1-3 3-5 1h-39l-4-1-12 1-12-1-1 1-15 1h-19l-2 1-6-1h-9l-5 2h-12v2h-2v3l-5 2-3 3-3 1-1 19-1 38-4 2-18 1h-57l-2-3h-15l-9-1-13-3-6-2v-2h-22l-7-3-2-5-1-6-2-14-2-5-2-20v-9l-10 1-6 1-8-3-11 1-7 2-4-2-1-1-12 1-13 2-5-3h-5l-3 3-6-1-2-1h-9l-3 2-5-1-4-2h-11l-3 2h-5l-2-2h-10l-3 1-3-1h-42l-17-1-30-2-44-4-51-3-58-5-13-2-1-1-3-67-1-5-15-1-19-1h-18l-52-1-119 1h-38l-114 1h-51l-56-1-6-1-1-18-2-39-1-15h2l-2-7 5 1h397l9-2 102-3 64-1 1-4-1-1 1-4h3l2-3v-3h-3l-3 4v-15h4l2-8h2l-1 7 4-4-1-11 1-6v-7l-1-1-1-10 4 4z" fill="#252525"/>
<path transform="translate(1272,513)" d="m0 0h221l100 1 1 26 1 44 2 5 17-1 2 1h32l2 1v-2h21l13 4h2l2 4 1 6 7-1 4 4 12-2 4-1 3-3 24-3 15-1 1 1 2 45v93l-1 17-3 2-54 5-17 1-11 2-5 3h-37l-3-5 17-1 6-1 17-1 7-2 1-2 1-73v-85l-40 1h-43v54l1 87 1 19 1 4 16 1v1h-8l-1 3h-5l-3-3-9-2h-13l-38 2h-17v6l-1 2h-5l-3-6-8-1h-65l-4 1-1 18-2 4-2-15-2-8-6-1-27-1h-56l-59 1h-8l1-7-3-1 1-102h-1v-56h-83v98l1 43 1 18 2 6-6 1-12-1v-2l-30 1h-26l-8-1-1-11v-138l1-13 49-2 17-1 9-3 14-2 9-1 44-1h5l5-1h3l3-11 3-9 1-29v-11z" fill="#262626"/>
<path transform="translate(1033,917)" d="m0 0h47l16 2 4 2 2 20 3 53 2 4 10 1h332l129 1 76 1 19 1 4 2 1 2v32l-1 30-1 12-4 4-19 2-33 2-36 1h-68l-2 76-4 2-18 1h-57l-2-5v-43l1-32-18 1-63 1-39 1h-94l-70-3-27-2-15-2-2-1-1-56-1-18-1-1-56-3-102-4-3-3-1-17v-57l9-3 11-1 64-2z" fill="#B4160C"/>
<path transform="translate(1518,1659)" d="m0 0h15l44 2 31 1 19 1 60 1 40 1h10l23 1h3l1-4h80v168h-30l-98-1h-72l-32-1-8-2-8-7-3-6-1-9-1-62-1-2-5 1-3 2h-9l-11-3-28-2-9-3-2-2v-6l1-5v-16l-1-9v-23l2-11v-2l-7-1z" fill="#262626"/>
<path transform="translate(1135,174)" d="m0 0h135l1 1 1 61 3 14 6 8 7 5 12 3 25 2 25 1 1 1v37l-1 14-2 10h-3l-4-14 1-4-2-6-6 2-2 4-5-1-9-3-2-6h2l-1-2h-3l-1 2h-2l-3-5v-2l-5-2-6 1 2 5-6-1-2 7-3 1-6 11-2 3-1 10-4 15-2 12h-1l-2-19h-1l-1-77-50 2-23 2-6 1-1 9-1 22-1 45-30-2-14-3h-7l-3 1-10-2-7-1-5 2-11 1-74-1-2-3v-21l1-33 1-14 1-1h24l8 1h31l5-2 2-3v-56l3-12 6-10 9-9z" fill="#262626"/>
<path transform="translate(858,428)" d="m0 0h31v1l-28 1v245l35-1h36l89 1v79l-5 1-70 1h-82l-4-1v86h164l1 76-1 1-62 1-106 3-1-21v-406l1-54 1-12z" fill="#878A8A"/>
<path transform="translate(1516,190)" d="m0 0 2 4 2-1 1 5 3-2 2 3v13l4-9 5-3 7-2 10-3 5-2 12-1h27l30 2 10 3 9 5 3 3v2h2v2h3l2 5 1 12 1-2v-8l4-2-2-4-6-3-1-4 1-2-13-6-8-2v-1l8-1 19 6h7l4-2-2 22v22h2v-25l1-15 1-2 3 1v6l2 6 1 10 2-6h1l2 24v9h-2v6h-1v-13h-2l1 23-49 2-23 2h-6v159l1 1 10 1v2h33v1l-39 1h-5l-3-3-1-28-3-17v-40l-33-1-13-2h-19l-8-4-1-3-3-1v-2h-2l-4-7-6-2v-2l7-1v3l3-1v2h7l-5-6-3-5-8-1-5-1-1 2-7-1-8 1v5l8 3-1 2h-8l-9 6 2 6-2 2-12 2-7 2h-6l-4-4-3-10h-4l-4 1v-42l1-16 18-1 51-1 4-2 1-3 2-61z" fill="#262626"/>
<path transform="translate(1033,917)" d="m0 0h47l16 2 4 2 2 20 3 53 2 4 10 1h332l129 1 76 1 19 1 4 2 1 2v32l-1 30-1 12-4 4-19 2-33 2-36 1h-58v-1l13-1h34l45-1 39-3-1-5-12-5-2-3 1-19-3-9-2-17-1-6 2-5h2v-2l3-3-1-3-3-2-13-1-212-2h-126l-99 1-13 3-14 2-6 1 1 3 2 1 1 5-1 2h-2l-4 16-3 3-2 9v11l5 8 1 3v7l-1 3 8 4 18 2 10 2 73 2h18l61-1h74v1l-63 1-39 1h-94l-70-3-27-2-15-2-2-1-1-56-1-18-1-1-56-3-102-4-3-3-1-17v-57l9-3 11-1 64-2z" fill="#98100D"/>
<path transform="translate(940,426)" d="m0 0h3l-1 14-1 87-2 84-1 54v4l6 3 6 1v1l-54 1-36 1v-246l1-1 67-1z" fill="#262626"/>
<path transform="translate(1039,850)" d="m0 0 3 1 4 8 3 11 3 7v5l-3 1-1 3 5 1 3 3-1 2-5-2-1 4h5l2-1-2 5-4 1-2 5-3 1h-1l2 2h-6l10 2h2 7l3 2 6-1 2-1h14v-2l12 2 5 5 2 6 3 6-1 6 3 8 2 14v34l2 7 2 1 1-3 9-1v-2l5-2 1-3h6v-3l-5-4v-5h2l2 5 7 1 3 2v2l6 1-2-4-3-1v-7h3l1 3 10 3 6 5 6-1 4-3v2l3-1 2 2-1 3h-4v3l7 1h9l-1-3 4-5h2l2 6-1 3 9-2 4-1v3l8-1h9l18-2 3-1 4 2 7-1 7 1h15l15-1 5 1 1-1h18l15 2 8-1 11 1h8l7-1 2 1h22l6-1 3-1 11 1 14-1 1 2 3-2h12l4-1 2 2 10-1 7-1 7 1 8-2 4 1 1-3 4 3 12 1 4-1 12 1 5-1 4 1 2-1-1-8h-7l-7-4-5-3v5l-4 3-5-2-3-1-9 2-9-4h-5l-2 8-3-2-3-9h-7l-2 2-1 2-4-1 1-4-7 3-7-2-9-2v-1l12-1 3 1-1-3 8 1-5-2-10-1-1-2v5l-5-1-3-2-1-5v-3l2-1v2h2l2 2 1-2h2v-2l5-1v-2l4 1 1 4-3 1v2l4-4h5l2 2 4 1 2-4h4l2 5h4v-2l10-2 10 2 3 1v2h6l5-1v-2l4-1h6l6-3 7 1 5 3 13 1 5-1 9-2 4 2 6-2 2 4 4 2 3-3h2v-3l6-1 2 4-2 2h-3l1 2h5l3-1 1-2 10-2v2l5 1 3-2 1 5 5 2 8-2 4 2 2 3h8l3 4-6 2h-2v-2l-5-1-2-1-3 2-3-1v-4l-2 1v4l1 8-1 3 2 2 5 2 4 2h5l3-2h7l-1 2 7 2 6-1v-4l-3-1 2-2 6 3 2 5 12 1 6 4-1 4 3 2h-2l-2 59-1 19-1 287-2-3-2-47-1-10v-24l-1-18v-80l2-31 1-30 1-26-1-7-3-1-3 3-5 1h-39l-4-1-12 1-12-1-1 1-15 1h-19l-2 1-6-1h-9l-5 2h-12v2h-2v3l-5 2-3 3-3 1-1-19 1-1h68l36-1 33-2 21-2 1-3 1-12 1-30v-32l-1-2-3-1-19-1-76-1-134-1h-327l-10-1-3-5-4-67-1-6-8-2-11-1h-47l-8 1-64 2-15 2-4 1-1 52h-1l-1-49 2-6-42 1h-39v-1l102-3 64-1 1-4-1-1 1-4h3l2-3v-3h-3l-3 4v-15h4l2-8h2l-1 7 4-4-1-11 1-6v-7l-1-1-1-10 4 4z" fill="#333134"/>
<path transform="translate(1209,594)" d="m0 0h58l3 1v111l-1 50-2 2-56 1h-20l-3-5-1-18-1-43v-93l1-5z" fill="#FAE62F"/>
<path transform="translate(1245,262)" d="m0 0h23l1 3 1 74v88l-1 1-10 1h-66l-5-2-1-55v-96l2-9 6-2 23-2z" fill="#C5596F"/>
<path transform="translate(1596,594)" d="m0 0h83l1 30v55l-1 73-4 4-5 1-44 2h-17l-9-1-1-2-1-30-2-115z" fill="#FAE62F"/>
<path transform="translate(859,451)" d="m0 0h1l1 224 35-1h36l89 1v79l-5 1-70 1h-82l-4-1v8h-1z" fill="#868989"/>
<path transform="translate(1649,263)" d="m0 0h31l2 2-1 149-1 12-1 1-9 1-24 1h-34l-10-1-2-2v-151l1-8 17-2z" fill="#F37B94"/>
<path transform="translate(1763,1420)" d="m0 0 4 1-1 238h21l54 1 6 2-1 169-14 5 1 4 5 5 6 4 2 2 1 8 1 34-2 5-5 1-79 1h-70l-6-2-1-64-65-1-13-2-3-5 8 1 32 1h72l98 1 30 1v-168h-76l-3-1-1-5-1-33z" fill="#979797"/>
<path transform="translate(1270,1661)" d="m0 0h2l-1 236-1 1-13 1-73 1h-72l-2-3v-63l-60-1-19-2-3-4h19l66 1 1-1h113l37 1 3 1v-77l1-82 1-8z" fill="#979797"/>
<path transform="translate(364,1663)" d="m0 0h8l-6 8-3 6-1 24-1 109v87l-6 2-90 1h-63l-2-2-1-64h-72l-6-1 1-6h205l32 1v-81l1-78z" fill="#979797"/>
<path transform="translate(1845,681)" d="m0 0 31 1 50 1 1 1v62l-1 1-16 1-62 1-1 46v47l42 1 37 1 1 1v74l-3 2-49 1h-71v-1h38v-35l1-34 1-8v-56l1-42v-60-4z" fill="#878A8A"/>
<path transform="translate(936,1675)" d="m0 0h1v75l-1 148-4 1-92 1h-63l-2-5v-62l-72 1-6-1-1-6 11 1h130l74 1 23 1v-120z" fill="#9A9A9A"/>
<path transform="translate(1697,275)" d="m0 0 9 1h17l14 2 7 4 2 2 5 1 3 8 2 11 1 15 5-2 2 73v31l-3 3-3-2-2-9-2-4-2-1-3 11-2 2h-7l-7-3-1-3-7-1-6-5-2-5-4-4h-3l-1 5v3l-5 2-8 7-4 3-1 3-4 4h-5l-2-3v-10h1l1-29 2-13 1-2 1-10v-12l-1-6v-15l2-18v-9l2-22z" fill="#262525"/>
<path transform="translate(449,922)" d="m0 0 5 1h397l4-1h23l4 4-9 1-8 4-2 2h-3v-2l4-1v-2h3v-2l6-2h-13l-2 4-8 4-22 3-27 5-14 2-6 1-30 2h-16l-21 1h-76l-4-1h-15l-8-1-25-1-31-3-13-2-43-4-20-2-8-2-11-1-9-1z" fill="#222023"/>
<path transform="translate(1649,263)" d="m0 0h31l2 2-1 149h-1l-1-69-9 1h-32l-10-1-7-1-9-3-7-2h-1l-2 1-1 86h-1v-151l1-8 17-2z" fill="#C65A70"/>
<path transform="translate(1192,342)" d="m0 0h5v2l6-2 13 1 9 1h40l1-2 2 2v83l-16 1h-63l-1-5 1-28 1-51z" fill="#F37B94"/>
<path transform="translate(594,256)" d="m0 0 6 1 11 10-1 38-1 1-1 8-2 1-1-6-4 1 1-4 5-1 1-7h-2l-3-4-5 8-8-1-7-7-16-6-17-2-20-1h-38l-10 3-8 4h-2l-2 4-2 2-2 5h-2l-2 10-1 7-1 8v26l-1 2h2v-6l1-2h2l1 5v13l2 14 2 10 2 18 2 3v3l-8 3v3l48 3 3 3h-70v-43l1-115 12-1 115-1 11-1 4-1 2-5z" fill="#201E21"/>
<path transform="translate(1439,761)" d="m0 0h65l8 1 2 3 1 19 1 45-1 8-3 2-10 1h-54l-11-2-3-2-1-9v-27l1-37z" fill="#F17A92"/>
<path transform="translate(1435,1088)" d="m0 0h67l11 1 2 2v36l-1 38-4 2-18 1h-55l-2-2-1-13v-29z" fill="#FBE72F"/>
<path transform="translate(860,755)" d="m0 0 125 1-3 2-23 1-14 1-7 2v10l-3 5h-8l-3 3-5 2-3 5h-3l2 6 2 2 1 6 11 9 6 7 2 1 1 9-3 3-11 3v2l7 2 3 1 11 1v1l-85 1z" fill="#262626"/>
<path transform="translate(1416,1088)" d="m0 0h18v32l-1 45h-15l-9-1-13-3-6-2v-2h-22l-7-3-2-5-1-6-2-14-2-5-2-20v-9l-10 1-6 1-8-3-11 1-7 2-4-2v-3h8v-2l39-1z" fill="#262626"/>
<path transform="translate(1422,841)" d="m0 0h9l2 2 1 6-1 11 3 43-2 7-2 3-5 1h-71l-2-5 1-14 1-45 1-7 5-1h53z" fill="#4D4C4D"/>
<path transform="translate(1845,681)" d="m0 0 31 1 50 1 1 1v62l-1 1-16 1h-64l-1-2v-60-4z" fill="#878A8A"/>
<path transform="translate(312,673)" d="m0 0h43l-4 4-3 1-3-2v2l-6 1-2 4-5 3-3 6-8 7-12 15-2 14-2 7 3 7-1 16 2 32v15l1 5-1 6 1 3v9l-1 5-2-3-3-13h2l1-6h-3v-8-3l1-1v-8l-7 3-3-5v-6l4-2-1-4h-2l-1-8 2-4-3-4 1-10 1-2h3l-2-9-2-4v-7l3-5 2-10 5-1 5-10 3-3h2v-2l8-4v-6l4-4h2l1-4-1-1-10 4-11 9-9 5-3 8-2 11-1 24-1 5 1 19-1 10v14l1 5v14l-1 11 1 11v48l-1 9v7h-2l1 5v11l1-3v-8l2-12 2-2 10 2-1 4-3 4-3 7-1 7-4 9-5 10v6h-2l1 3 1 27-1 34v40l-1 4v6l1 5v8 4 7 1l-1 3 1 1v117l1 12-1 13-1 3h2v9 3 4l-1 1h1v5l-2 1-2 8h-1v-578z" fill="#1C1A1D"/>
<path transform="translate(1522,841)" d="m0 0h71v68l-6 2-46 2h-18l-1-1-1-44v-23z" fill="#4D4C4D"/>
<path transform="translate(521,428)" d="m0 0 6 1 1 38v98l-1 24-7 1-56 2h-99l-2 79-12 2-39 1h-29v654l-5 2-26 1h-50v10h-1v-14l1-2h71l6-2v-553l1-70 1-28 1-3 77-1 1-4 1-67 1-8 6-1h152v-108z" fill="#FAFAFA"/>
<path transform="translate(464,591)" d="m0 0h55l-4 1 1 2h6l4 4v5h-17l-5 3-14 3-9 4-1 1h-8l-13 2h-14l-2 1h-11l-5 1h-9l-18 5-12 11h-2v2l-7 3-3 11-4 9-2 15h-2l-1 3h-4l-2-5h2v-36l1-39 1-5z" fill="#1F1E20"/>
<path transform="translate(1267,233)" d="m0 0h3l2 17 1 12h2l1 2 19 1 15 2 40 2 1 1v37l-1 14-2 10h-3l-4-14 1-4-2-6-6 2-2 4-5-1-9-3-2-6h2l-1-2h-3l-1 2h-2l-3-5v-2l-5-2-6 1 2 5-6-1-2 7-3 1-6 11-2 3-1 10-4 15-2 12h-1l-2-19h-1l-1-77h-9l-3-2v-5l2 1v2l8-1 1 3h2l-1-13-1-1-1 2-8-1-1-4 1-2h2l1-2 4 2z" fill="#262626"/>
<path transform="translate(1586,173)" d="m0 0h34l39 1 10 2 9 6 4 5v42h-1l-1-14-2 6h-1l-2-15-1-4v-4l-2-1-1 23v12l-1 7h-2l-1-13 1-23 2-8-4 3h-7l-19-6-5 1 10 3 9 4-1 7 6 2 2 2v3l-3 2v9l-2 2-1-1-1-12-1-5h-3v-2h-2l-4-5-13-6-18-2-20-1h-26l-14 2-6 3-5 1-7 2-5 3-3 8-2 1v-14l-2-2-2 3-2-6-2 1v-6l8-10 6-4 13-1z" fill="#1D1B1E"/>
<path transform="translate(617,348)" d="m0 0 75 1v328h-28l1-3h8l7 2v-2l6-3-3-5 1-18v-16l-1-19v-123l1-24v-21l1-26-2-42h-2v-3l-6 2-8-11-3-4-13-2-5-1-15-2-11-2-1-3-4-1z" fill="#222023"/>
<path transform="translate(940,347)" d="m0 0 73 1v2l-10 4-1 2-5 2v5l-4 4-2 6-3 1v3h-2l-1 3-4 4-9 15-8 11-5 4-7 2-3 1-2 4-5 1v4l-2 1h-6l1-7 2-69 1-3z" fill="#292929"/>
<path transform="translate(860,430)" d="m0 0h56l-1 4-20 5-14 12-6 2-2 3-1 9-2 58v23l1 12v56l-1 4v22l-1 7 1 8v8l3 8-3 3h-10z" fill="#1C1A1D"/>
<path transform="translate(1106,183)" d="m0 0h164l-1 42h-1l-1-5-3-4-1-4 1-5h-2v-2l-6-1-6 3h-5v-2l-4-1-7-6-7-4-10-3h-16l-4-1h-29v-2h-2v2l-7 2-5 1-13 4-9 6-5 4-3 5-5 5-2 15-4 8-4 2 1 4-1 7-1 4-5 2v-58l1-15z" fill="#211F22"/>
<path transform="translate(1783,1663)" d="m0 0h61v167l-21-1-11-1v-1l19-2-4-3v-2l7-2-3-7v-4l1-7-2-4 3-5-1-8 1-7-1-37v-8l-1-6 2-8h-2l-3-4 1-4-2-1-3-9-3-5-3-7-5-9-6-3-24-3-4-2 1-3 8-1v-2h-5z" fill="#201E21"/>
<path transform="translate(692,349)" d="m0 0 4 1v42l-1 287-4 2-75 1-1 78-2 1-62 1h-96v57l-1 104-4-1-1-1-1-10v-147l2-3 82-2 67-1 11-1 1-76 1-3h81l-1-36z" fill="#FBFBFB"/>
<path transform="translate(122,1428)" d="m0 0 2 4v132l2-1 3-27 4-2v9l-2 3v7l-1 2 2 4-1 16-1 8 1 4-3 15v16l-1 6 1 18v9l-3 4h2l1 5v21h-3l1 5 2 1 1 4-1 3v7l1 6-2 3 1 4 1 3v18l2 9v7l1 5-1 6 2 6-5 5-3 1v-5h-2v58l-1 5-2-2-1-20v-320l1-53 1-8z" fill="#1E1C1F"/>
<path transform="translate(1683 1e3)" d="m0 0h4v60l-1 355h20v1l-23 1v-3-1l-1-5-2-70v-280l2-57z" fill="#FBFBFB"/>
<path transform="translate(1679,1031)" d="m0 0h1l-1 336-2-3-2-47-1-10v-24l-1-18v-80l2-31 1-30 1-26-1-7-3-1-3 3-5 1h-39l-4-1-12 1-12-1-1 1-15 1h-19l-2 1-6-1h-9l-5 2h-12v2h-2v3l-5 2-3 3-3 1-1-19 1-1h68l36-1 33-2 21-2 1-3 1-12 1-29 1-1z" fill="#252425"/>
<path transform="translate(521,425)" d="m0 0 9 1 4 6 2 22 5 14 1 3 1 14h2l3 15 1 25-1 7v10l-2 3 1 7-5 2-1 8-3 9-2 1-2 8-3 6-2-4-1-22-1-93-1-38-5-2z" fill="#201E21"/>
<path transform="translate(1682,189)" d="m0 0 2 4 1 7 1 48v18l77 2v81h-1l-1-30h-4l-2-15-3-14-1-5h-5l-6-5-7-2-17-1h-16l-3-1-8 2v14l-1 8v11l-2 16v15l1 7v12l-1 9-2 6-1 9-1 38h-1v-158l-3-3v-22h2l1 7h2l-1-9z" fill="#272628"/>
<path transform="translate(1039,850)" d="m0 0 3 1 4 8 3 11 3 7v5l-3 1-1 3 5 1 3 3-1 2-5-2-1 4h5l2-1-2 5-4 1-2 5-3 1h-1l2 2h-6l10 2h2 7l3 2 6-1 2-1h14v-2l12 2 5 5 2 6 3 6-1 6 3 8 2 14v34l1 7h-4l-1-6v-10h-2l-1-2-3-50-1-6-8-2-11-1h-47l-8 1-64 2-15 2-4 1-1 52h-1l-1-49 2-6-42 1h-39v-1l102-3 64-1 1-4-1-1 1-4h3l2-3v-3h-3l-3 4v-15h4l2-8h2l-1 7 4-4-1-11 1-6v-7l-1-1-1-10 4 4z" fill="#323133"/>
<path transform="translate(1022,1658)" d="m0 0h3l3 7v8l1 10 2 15v10h2l1 3v8l1 10 1 55 2 5v6l3 1-1 7-5 6v6l3 4 5 2 25 2-1 3h25v1h-65l-4-5-1-47-1-110-1-4h-3v-2z" fill="#2F2F2F"/>
<path transform="translate(858,428)" d="m0 0h31v1l-28 1-1 21-1 470-3 1-1-21v-406l1-54 1-12z" fill="#FDFDFD"/>
<path transform="translate(355,1680)" d="m0 0 3 1 1 147h-32l-31-2-1-2h6v-2l43-1 2-2-4-2-8-2v-14l3-5 6-3 3-6 1-15 1-4v-15l3-39 1-20 1-12h2z" fill="#1C1A1D"/>
<path transform="translate(944 1e3)" d="m0 0h28l97 4 30 4 4 2 1 2 1 21v48h-3l-3-4-2-24-3-10 3-5-2-4 2-4h2l-3-14-4-4-5-2-3 1h-20l-21-1-33-1h-16l-5-1h-27l-16 1-2-2v-5l-2-1z" fill="#1D1B1E"/>
<path transform="translate(1586,173)" d="m0 0h34l39 1 10 2 9 6 1 2h-157l2-4 5-4 2-1 13-1z" fill="#F2F2F2"/>
<path transform="translate(1135,174)" d="m0 0h135l1 1v53h-1v-45h-163l6-7 1-1z" fill="#FDFDFD"/>
<path transform="translate(1513,1659)" d="m0 0 9 1 3 1 1 5-2 8v23l1 17v11l-1 2v6l5 3 16 2 17 1 11 3h9l-2 5-6 4-9 2h-32l-6-2-10-11-1-4-1-70z" fill="#242225"/>
<path transform="translate(510,748)" d="m0 0h38l4 2v1l-20 4 4 2 63 1v1l-67 1-82 2-1 2-1 108h-1l-1-83-2-2v-22l4-2-1-5h-2l1-6 4-2 4-1z" fill="#454546"/>
<path transform="translate(1300,293)" d="m0 0 5 1 5 5 1 4h2l1-3 4 1v2h-2l2 5 14 5 2-5 6-1 3 7-1 4 3 12 2 1 2-10 1-14h1v28l-2 2-5-1-5-10-4 1-7 2-11-7-9-4-3-3h-3l-1 4-6 3h-2v2h-2l-2 4-6 4-5 7h-1v-6l1-5 1-7 8-14 4-1 2-7 6 1-2-5z" fill="#323033"/>
<path transform="translate(312,673)" d="m0 0h43l-4 4-3 1-3-2v2l-6 1-2 4-5 3-3 6-8 7-12 15-2 14-2 7 3 7-1 16 2 32v15l1 5-1 6 1 3v9l-1 5-2-3-3-13h2l1-6h-3v-8-3l1-1v-8l-7 3-3-5v-6l4-2-1-4h-2l-1-8 2-4-3-4 1-10 1-2h3l-2-9-2-4v-7l3-5 2-10 5-1 5-10 3-3h2v-2l8-4v-6l4-4h2l1-4 3-5-21-1z" fill="#1D1B1E"/>
<path transform="translate(300,924)" d="m0 0h10l-5 4-2 4-2 11-2 13v18l-1 29-2 30 1 6-2 5 1 12-1 5 1 12v36l1 3-2 7 1 5v19l-1 5 1 7v38l1 17v5l1 1-1 10-2-3-2-17v-10l-2-13 1-12-1-3v-17l1-2-1-7v-16l1-21v-10l-1-4v-64h2l-2-4v-8l1-8v-28l1-6v-14l1-5-1-5 3-16 2-7z" fill="#333134"/>
<path transform="translate(1763,1420)" d="m0 0 4 1-1 238h21l54 1 6 2-1 169-6 2v-2l3-1 1-168h-76l-3-1-1-5-1-33z" fill="#FCFCFC"/>
<path transform="translate(496,596)" d="m0 0h6v2h-3v4l-15 4-4 4-10 2-14 1h-17l-25 2-16 6-8 6-1 2-7 2-5 1-3 11-1 3h-3l-1 2v-14l4-4 2-9 3-5 23-7 13-3 14-2 34-1 18-2 15-4z" fill="#262626"/>
<path transform="translate(1493,310)" d="m0 0 7 1 1-1 13 1 3 3 2 6 3 1 1 3-8-1-3-1v-3l-7 1v2l7 1 2 4 1 4h2v2l4 1 1 3 7 3h22l3 2-8 1-59-2h-28l-3-2 11-3 8-1v-4l-1-3 5-4 6-3h7v-1l-7-2-1-4 3-3z" fill="#323033"/>
<path transform="translate(521,428)" d="m0 0 6 1 1 38v98l-1 24-13 1 2-2h4v-108z" fill="#FCFCFC"/>
<path transform="translate(1266,1686)" d="m0 0h1v143l-40-1-9-1 2-2h20l7-1h11v-46l1-20v-26l1-4-1-3 1-7 1-16 4-4z" fill="#262526"/>
<path transform="translate(1416,1088)" d="m0 0h18v32l-1 8-1 35-5-2v-2h2v-3h2l-2-5h-2l-2-8-4-19-3-5-1-7-7-5-2-5-8-3 1-2 13 2 4 3-2 5 7-1 1 2v-6l-7-6-10-3-4-1-4 2h-9l-2-1v-2l-33 1-8-1v-1l6-1z" fill="#1D1B1E"/>
<path transform="translate(450,761)" d="m0 0h41v1h-36v57l-1 104-4-1-1-1-1-10v-147z" fill="#FAFAFA"/>
<path transform="translate(1845,681)" d="m0 0 31 1 50 1 1 1v59h-8l-5-10 1-13-1-5-3-5-1-6h-2l-2-6 2-3 7-1v-2h2l2-4h5v-1h-73l-6 2 1-4z" fill="#979797"/>
<path transform="translate(1823,429)" d="m0 0h21v150l-1 91h-1l-1-5-1-47-1-52v-41l1-29v-52l-4-4-1-3-11-1-8-1-6-2-45-1 1-2h41z" fill="#333334"/>
<path transform="translate(202,1331)" d="m0 0h75v1l-8 1-8 3-8 1-5 1v3l-13 5-9 3v2l-6 3h-2v2l-4 4-2 9-1 11-2-4 2-22 1-7 3-3 12-1 9-3h3v-3l4-1-10 1-8 3-10 2-5 5-1 8-2 20-1 7-2 1-2 3z" fill="#1F1D1F"/>
<path transform="translate(444,267)" d="m0 0h13v1h-10v115l-1 43h12l13 1v1h-28l-2-3v-143l1-13z" fill="#F0F0F0"/>
<path transform="translate(1016,1662)" d="m0 0 5 1 1 2 1 110v46l-3-1-2-5-1-8-1-21z" fill="#FDFDFD"/>
<path transform="translate(1591,595)" d="m0 0h4l1 54v40l-2 18h-1l-2 6h-1v-8h-2v-18l-1-13-2-12 2-36 2-27z" fill="#1D1B1E"/>
<path transform="translate(1593,766)" d="m0 0 6 2 5 1 3 3v6h4v-6-3h6l6 2v-2h23l2 2h9v2l3 2-10 2 2 1 9-1 6 1 3-1 2 1 1-3 3-1-2 4-5 5-3 1h-7l-2 1h-27l-10-3v2h-10l-10-4-3-10h-6z" fill="#333134"/>
<path transform="translate(1073,312)" d="m0 0h6l3 4 7 1-1-3 2-1 9-1 3 2 2 5h8l1 5 4 1v2l2 1-1 5-21 1-9 1-11-1-3-2h-9l-1-4 8-5h5l-5-6-1-3z" fill="#323033"/>
<path transform="translate(860,755)" d="m0 0 27 2-3 2-10 5-3 4-2 12-1 13-1 4 1 28 2 8 2 5-1 2-11 1z" fill="#1C1A1D"/>
<path transform="translate(1922,846)" d="m0 0h4l1 3v39l-1 23-5 2-4 2-2-3 1-8v-14l-2-15-3-4v-13l7-5z" fill="#979797"/>
<path transform="translate(1640,813)" d="m0 0 3 1-4 4h2l1 2 3 1 1-4 3-3 2 6-2 3-5 2-1 4h2l1-2 1 2 3-1 3 4-2 2-2-2-4 1v2h2l-1 4 2 1v3l6 1 7-1 2 1v4h-3l-1-2-3 2-5-1-2 1-1 4 2-2v-2l8 2 1 3h-5v2l2 4-6 1-3-3-6-2-5-1-5 1v-3h-2l-1-3h2l-1-6 2-6-1-3h3v-3h5l1-2-5 1-5-3 1-6 7-3v-4z" fill="#333134"/>
<path transform="translate(1270,1661)" d="m0 0h2l-1 236h-3v-227l1-8z" fill="#FDFDFD"/>
<path transform="translate(1672,197)" d="m0 0 3 1v6l2 6 1 10 2-6h1l2 24v9h-2v6h-1v-13h-2v22h-9l-3-1-2-5-2-3-3-9v-3l7 3 3-5 1-11v-14l1-15z" fill="#252525"/>
<path transform="translate(1271,650)" d="m0 0h1l-1 92-1 11 4 1v6h-2v2h-9l-2 2h-13l-7 2-4-2v2h-11l-7 1-4-2-16-1-5 1-4-1v-2l-3-1 4-2 20-1 56-1 1-1 2-105z" fill="#382C2F"/>
<path transform="translate(931,1689)" d="m0 0 2 2 1 139h-8l-5-1v-2l6-3 1-3-1-16v-33l1-29 2-26-1-10z" fill="#252525"/>
<path transform="translate(1844,429)" d="m0 0 3 1v164l-1 86h-1l-1-34z" fill="#FDFDFD"/>
<path transform="translate(1636,910)" d="m0 0 4 4-1 3 2 1 3 1-1 2v2 2l5 2 3 2 5 3 4 4v4 2l10 2 2 4 5 3v2h11l3 2-1 3h-14l-3 1-8-4-2-5v-3h-5v-2l-9-1-6-3-8-7 1-3 3-3-6-2-1-9 4-1v-3l-2-1z" fill="#333134"/>
<path transform="translate(1179,598)" d="m0 0 2 3 3 1 1 49v70h-1l-2-9-2-1-2-13v-27l1-53 1-12-2-6z" fill="#1C1A1D"/>
<path transform="translate(449,1570)" d="m0 0 10 10 4 2 4 5 6 3 2 7 6 5 4 1 2 5 4 1 3 2 7 2 1 3 11 2 5 3v2h2l7 8 4 5 3 2v8l7 2 9 3 9 2v1h-15l-9-2-3-1-2-10-6-8-2-3-5-2-3-5-14-5-6-3h-11l-5-2-3-7-5-4-5-2v-7l-6-9-2-1v-2h-2v-2l-4-2-2-3z" fill="#333134"/>
<path transform="translate(1035,256)" d="m0 0 7 3 5 5 1 2-22 1-2 21-3 56-7 1 1-4 2-58 2-10 5-8 6-7z" fill="#FCFCFC"/>
<path transform="translate(290,1015)" d="m0 0 2 4 1 8-1 5v60l1 6v16l-1 13v20l1 3-2 2-2 4-2-18v-48l-1-2h2l-1-9-1-5 2-2h-2l1-6-1-5 1-5v-8l-1-5v-6h2l-1-9v-7l1-4h2z" fill="#252525"/>
<path transform="translate(1026,266)" d="m0 0h24l8 1 7 2-3 3-11 4-7 2-7 1h-5l-2 5-1 24-1 6-1 2h-2l-1-3v-32l1-14z" fill="#1D1C1E"/>
<path transform="translate(122,1827)" d="m0 0h28l38 1 14 1v69h-2l-1-64h-72l-6-1z" fill="#FCFCFC"/>
<path transform="translate(1761,1452)" d="m0 0h1v153h-1l-1-12h-2l-1-16v-64l1-20v-13h2z" fill="#262626"/>
<path transform="translate(1848,689)" d="m0 0h2l5 8 1 3v10l-1 8 3 7v8l4 2-1 3-3 1-2 5h-10v-54z" fill="#989898"/>
<path transform="translate(1516,1088)" d="m0 0 80 1v1l-13 1-4 4h-16l-2 1-6-1h-9l-5 2h-12v2h-2v3l-5 2-3 3-3 1-1-19z" fill="#252525"/>
<path transform="translate(1337,350)" d="m0 0h3v2h6l4 4v2h32v2h8l3 3v2l-5 1-6-1-4 1-4-2-7 3-3-1-1 1-11-1h-8l-5-4-4-2-9 1-13 1v-2l9-1 5-2v-2z" fill="#333134"/>
<path transform="translate(1022,339)" d="m0 0 4 5-3 6-12 6-7 3 1 8-6 7-1 2-7 3-2 4-5 1-1 6h-2v2l-4 3-2 5-6 8-2 5-6 4-9-1 2-2 6-2 5-5 8-11 9-15 4-4h2v-3l3-2 2-6 3-3v-6l6-1 1-3 10-3v-2l-3-1 6-3 5-1z" fill="#333134"/>
<path transform="translate(1267,233)" d="m0 0h3l2 17 1 12h2l2 3 4 2-4 3h-1l-1 2v6l1 5-1 10-2 17-1 15h-1l-1 14h-1l-1-77h-9l-3-2v-5l2 1v2l8-1 1 3h2l-1-13-1-1-1 2-8-1-1-4 1-2h2l1-2 4 2z" fill="#371D1F"/>
<path transform="translate(879,841)" d="m0 0h143l1 4-2 2-7-1-3-2-41 1-14 1-1-2-7 2h-29l-24-3h-13z" fill="#949595"/>
<path transform="translate(1843,852)" d="m0 0 3 1 3 5 1 10-1 6v11l-1 7 1 13 3 10-3 3-4 2 30 1v1h-71v-1h38v-35z" fill="#9A9B9B"/>
<path transform="translate(1766,1662)" d="m0 0 16 1v2h-4v2l-7 3 4 2 16 2 8 3 1 4-1 3 8 1 1 6 6 3v4l4 1 1 4-2 5 2 5 1 9v6l-1 1v21l-1 14-2 4-1-7v-44l-1-2v-10l-4-8-6-7-4-2-5-5-18-8-7-2-4-4 1-2h-2z" fill="#1C1A1D"/>
<path transform="translate(943,508)" d="m0 0h5l2 7-1 2 1 10-1 2v6l3 5 3 1 1-2 2 5-3 4-3 1 1 2-3 2v8l-1 7 2 3-5 5-1 7-2-1-2 2v-10l-2-3 1-16h2v-6l2-1 1 2 1-5v-9l-1-5 1-3-3-3-1-4 1-4-1-7z" fill="#333134"/>
<path transform="translate(1714,1420)" d="m0 0h49l-1 16h-2v7l-2 4-2-9-4-8-13-3-25-2h-7l-9-1-7-2v-1z" fill="#262526"/>
<path transform="translate(1028,1827)" d="m0 0h19l52 1 13 1-1 56h-1v-51l-60-1-19-2z" fill="#FDFDFD"/>
<path transform="translate(696,1827)" d="m0 0 11 1 71 2v18l-1 49-2-2v-62l-72 1-6-1z" fill="#FDFDFD"/>
<path transform="translate(1103,187)" d="m0 0h1l-1 69-2 7-6 2 1-3v-56l3-12z" fill="#F6F6F6"/>
<path transform="translate(1681,614)" d="m0 0 2 4 2 6v17l1 5 1 33v19l-2 13-3 1-1-3z" fill="#1C1A1D"/>
<path transform="translate(1598,1763)" d="m0 0 4 5 2 4 1-6 2 4 3 19-1 12-2 6-3 3 1 10-2-2-4-1-1-23z" fill="#1C1A1D"/>
<path transform="translate(1763,269)" d="m0 0h3l1 2v27l-1 128h-1l-2-36z" fill="#F0F0F0"/>
<path transform="translate(1520,1742)" d="m0 0 8 1 52 2-2 4-7 3-6 1h-32l-6-2-7-8z" fill="#FCFCFC"/>
<path transform="translate(668,446)" d="m0 0h1l1 31-1 3v22l-1 6v38l1 6v35l1 30-2 12h-1v-36l-2-27v-17l-1-7 1-17v-27l-1-10 2-9v-21l1-10z" fill="#1C1A1D"/>
<path transform="translate(1515,1091)" d="m0 0h1l1 16h2l1-3 4-2h3v5h-2l-4 16-4-2v8l2 11 2 2 5-6 2 3v2l4 2-4 3 1 3-5 2-2 7-4 5-3 1z" fill="#333134"/>
<path transform="translate(611,347)" d="m0 0h2l1 5 6 2 7 2 25 5 5 2 2 2 1 7 7 3 2 4 3 24-1 5-1 31-2 7-1-2v-49l-3-13-6-6v-3h-2l-4-4-11-6-11-4-10-2-5-2v-2h-2z" fill="#1C1A1D"/>
<path transform="translate(364,1663)" d="m0 0h8l-6 8-3 6-1 24-1 109v87h-2l-1-68 2-160z" fill="#FDFDFD"/>
<path transform="translate(1032,1708)" d="m0 0 2 3v8l1 10 1 55 2 5v6l3 1-1 7-5 6v6l3 4 5 2-4 1-6-2-3-8 1-9 1-10v-58l-1-18v-8z" fill="#333134"/>
<path transform="translate(1604,1826)" d="m0 0 8 1 66 2 10 1-1 36h-1l-1-32-65-1-13-2z" fill="#FCFCFC"/>
<path transform="translate(1844,1661)" d="m0 0 3 1-1 169-6 2v-2l3-1z" fill="#F8F8F8"/>
<path transform="translate(1514,1166)" d="m0 0 1 2-7 1-1 3-6 1-1-1-14-1-16 4h-22l-5-3-9-1-1-4h78z" fill="#262427"/>
<path transform="translate(942,348)" d="m0 0h15l5 1-2 6-8 3h-2l-1 9v7l-3 7h-2v10l-2 5-1-4z" fill="#1D1B1E"/>
<path transform="translate(1592,1744)" d="m0 0 3 1 1 4 1 15 1 41 1 16-5-5-2-12z" fill="#FCFCFC"/>
<path transform="translate(1435,268)" d="m0 0h8v1h-7v55l1 2 6-2 4 11 1 4 2 1-5-1-2-6h-2l-2 6h-3l-2-1-1 7h-3l1-16 1-43 1-16z" fill="#858486"/>
<path transform="translate(947,949)" d="m0 0 5 4 2 9v5h-3l-2 2 1 16 4 7-7 8-3-1-1-9 1-16h3l-4-8v-13z" fill="#B4150C"/>
<path transform="translate(937,772)" d="m0 0 1 4-3 5-3 1v2l-8 2 1 8-1 7 8 8 4 5 1 4-4-2-7-8-9-7-2-7-2-2v-5l3-1 4-6 5-2 2-2h8z" fill="#333134"/>
<path transform="translate(940,347)" d="m0 0 4 1h-3v32l-1 47h-6l1-7 2-69 1-3z" fill="#FBFBFB"/>
<path transform="translate(1840,548)" d="m0 0 3 1 1 18-1 103h-1l-1-5-1-47-1-52v-16z" fill="#252525"/>
<path transform="translate(1764,924)" d="m0 0h3v76l-1 1h-5v-16l1-37 1-20z" fill="#FDFDFD"/>
<path transform="translate(1106,1084)" d="m0 0 44 3 70 3 30 1 2 2-67-1-24-1-22-1-31-2-2-1z" fill="#222023"/>
<path transform="translate(1595,595)" d="m0 0h1l1 16 2 115 1 32h9v1h-10l-2-4-1-19-1-94z" fill="#49383E"/>
<path transform="translate(1335,341)" d="m0 0h11l2 1v2l3-1 1 3 3 1 26 1 1 3-1 2-7 3-13 1-9-2-3-6-4-4h-16l-4-2z" fill="#333134"/>
<path transform="translate(1846,748)" d="m0 0 2 1-1 46v47l42 1v1l-8 1h-36l-1-1v-56l1-39z" fill="#FDFDFD"/>
<path transform="translate(1766,430)" d="m0 0h77v27l-1 12h-1l-1-25-4-4-1-3-11-1-8-1-6-2-45-1z" fill="#262526"/>
<path transform="translate(1710,399)" d="m0 0 4 1 5 5v4l4 2 2 2 7 2 4 4 6 1h5l5-12 3 1 3 6 1 7 3 3-5-1-3-4v-2l-6 6h-10l-12-6-6-5-6-2-9-1v-2h4l-1-6z" fill="#333134"/>
<path transform="translate(679,396)" d="m0 0 3 4 1 8v38l-1 14-1 4-1 6-2-2-1-35v-14l1-8v-14z" fill="#1C1A1D"/>
<path transform="translate(1796,1814)" d="m0 0 13 3 3 4-8 2-27 3-6 1h-20l-3 1h-34l-3-2 3-1h12l49-2 16-2h9l-3-5z" fill="#1C1A1D"/>
<path transform="translate(1845,681)" d="m0 0 31 1 50 1 1 4h-76l-6 2 1-4z" fill="#A1A1A1"/>
<path transform="translate(498,290)" d="m0 0h26l30 2 9 2 4 3-7-1-12-2-15-1-35 1-12 5h-2v2l-4 3-3 9-3 5v15l-1 8-2-2v-17l2-14 5-6 4-4 10-6z" fill="#1C1A1D"/>
<path transform="translate(1272,626)" d="m0 0h1l2 11 1 25v15l-1 17-2 13v30l-2 1v-74z" fill="#1C1A1D"/>
<path transform="translate(1597,190)" d="m0 0h14l4 1 17 1 13 4 9 4-1 7 6 2 2 2v3l-3 2v9l-2 2-1-1-1-12-1-5h-3v-2h-2l-4-5-13-6-18-2-17-1z" fill="#1C1A1D"/>
<path transform="translate(1570,826)" d="m0 0 16 3 2 3-1 2-4 2v3h4l7-1 1 3-17 1-9-2-2-1-4 1v-7l-2-5 5 2z" fill="#333134"/>
<path transform="translate(1569,975)" d="m0 0h18l6 2 1 3-1 6-8 2h-10l-6-2 1-7h-2z" fill="#383939"/>
<path transform="translate(1715,316)" d="m0 0 4 2 4 6-2 9-1 4h-2l1 7 3 4v3l-7-1v-2l-5-1v-5l3-9 1-7-3-1 1-7z" fill="#333134"/>
<path transform="translate(962,918)" d="m0 0h32v1l-6 1-27 1-15 2-4 1-1 52h-1l-1-49 2-6-42 1h-39v-1z" fill="#3A393B"/>
<path transform="translate(1245,262)" d="m0 0h23l-1 5-11-1-23 1h-20l-15 2-8 1 1-4 12-2z" fill="#EA758D"/>
<path transform="translate(1682,189)" d="m0 0 2 4 1 7 1 64h-1l-1-7h-3v4l-3-1v-20h2l1 7h2l-1-9z" fill="#A1A1A2"/>
<path transform="translate(1104,932)" d="m0 0 2 1 2 9 1 5 1 7v34l1 7h-4l-2-16-1-27z" fill="#252525"/>
<path transform="translate(1599,277)" d="m0 0h1l1 149 1 1 10 1v2h33v1l-39 1h-5l-3-3z" fill="#333134"/>
<path transform="translate(1914,744)" d="m0 0h13l-1 3-16 1h-64l-1-3z" fill="#858585"/>
<path transform="translate(1512,1661)" d="m0 0 2 1 1 6 1 50 1 21-3-1-2-7z" fill="#FDFDFD"/>
<path transform="translate(1265,587)" d="m0 0 4 1-2 3 2 2h-82v-2l17-1h14l13-1 2-1h29z" fill="#1D1C1E"/>
<path transform="translate(122,1418)" d="m0 0h14l37 2-1 2-23 2h-9l-7 2-5-3-2 3h-2v2l-3 1v-9z" fill="#1E1C1F"/>
<path transform="translate(194,1824)" d="m0 0 31 1 66 1v1l-88 1h-53l-27-1v-1h63l1-1z" fill="#515152"/>
<path transform="translate(1646,757)" d="m0 0h7v1l-6 1-16 1 2 3h12l-2 2-5 1-3-1-1 2h-17l-1-1h-13l-2-2 5-1 1-4z" fill="#333134"/>
<path transform="translate(1515,192)" d="m0 0h1v18l-2 54h-4l2-63z" fill="#FCFCFC"/>
<path transform="translate(611,267)" d="m0 0 2 2 1 7 1 71-3-2-1-17z" fill="#FCFCFC"/>
<path transform="translate(1761,317)" d="m0 0h1l1 41-1 5-4-3-1-18v-23z" fill="#1C1A1D"/>
<path transform="translate(1481,921)" d="m0 0 4 1 4 2 4-1 9 3 2 5h3l-1 3-3 1-2-5-6-2-1-1-2 1v2h-18l-6-2-2 1v-2l-4-1v-1l8-2h3v2h5v-3z" fill="#333134"/>
<path transform="translate(618,1728)" d="m0 0 4 3 22 3 21 3 2 2h-25l-21-2-4-1v-7z" fill="#242424"/>
<path transform="translate(1696,281)" d="m0 0h11l6 3 1 3-9 1-5 2-3 4v7l-3 1-1 4-1-4-2 1 1-11 3-10z" fill="#1C1A1D"/>
<path transform="translate(1186,298)" d="m0 0h1l1 74v53h-2l-1-57v-12l1-12-6-1v-1h5z" fill="#3E393B"/>
<path transform="translate(933,920)" d="m0 0h11l-3 2-1 5v29h-3l-2-12-3-13v-10z" fill="#1C1A1D"/>
<path transform="translate(1687,594)" d="m0 0 10 4h8l5 2 7-3 12-1 9-1 2 2-23 3-1 3-11 2-5 1-4-4-7 1-2-7z" fill="#333134"/>
<path transform="translate(1597,592)" d="m0 0h82v2l-40 1h-35l-7-2z" fill="#6A2627"/>
<path transform="translate(528,560)" d="m0 0h1l1 28 3 1-2 7-4 1-7-2-5-1v-2l-29-1v-1l41-1v-24z" fill="#3B393B"/>
<path transform="translate(1436,269)" d="m0 0h33l-2 1-1 2-10 2-4 1v2l-7 2-1-2h-8z" fill="#1C1A1D"/>
<path transform="translate(1842,1848)" d="m0 0 4 3 1 8 1 34-2 5-3-3z" fill="#FDFDFD"/>
<path transform="translate(1263,1091)" d="m0 0h83v1l-40 1-19 3-7 1-6-4h-16v-1z" fill="#1C1A1D"/>
<path transform="translate(1133,190)" d="m0 0h14l-3 2-14 4-9 4h-2l-2 7-1 3-4-1-2-5h2l-1-3 1-5h5l5-3z" fill="#262626"/>
<path transform="translate(1676 1e3)" d="m0 0 4 1v4h2v20l-1 34-1 19h-1v-42h-1l-1-32z" fill="#4F4E50"/>
<path transform="translate(442,831)" d="m0 0 2 2 1 27-1 14-2 1-2-6-1-2v-19l1-15z" fill="#1C1A1D"/>
<path transform="translate(1653,1085)" d="m0 0h16v2h-3v2l-7 1h-50l-3-2z" fill="#1E1C1F"/>
<path transform="translate(1765,1659)" d="m0 0h22l54 1 3 2h-76l-3-1z" fill="#FDFDFD"/>
<path transform="translate(608,728)" d="m0 0 2 1v28h-17l3-2 1-2h8l-1-13 1-3 1-8z" fill="#1C1A1D"/>
<path transform="translate(1035,256)" d="m0 0 7 3 5 5 1 2-22 1-1 14h-1l-1-15 7-8z" fill="#E5E6E6"/>
<path transform="translate(1798,441)" d="m0 0 8 2 1-2 9 1 3 3v7l1 3v9l-3 3-4-11v-2l3-1-1-5-4 1-2-2-12-3-2-2z" fill="#333134"/>
<path transform="translate(1041,1018)" d="m0 0h16l9 1 5 1 6 1 5 1 4 5 1 4h-3l-7-2-2-2-4-1-2-4h-12l-12-2z" fill="#1C1A1D"/>
<path transform="translate(1432,835)" d="m0 0 1 2 7 1 8 1h64v2l-3 1h-69l-8-2z" fill="#592121"/>
<path transform="translate(1444,1170)" d="m0 0h42v1l-16 4h-22l-5-4z" fill="#262626"/>
<path transform="translate(1516,1088)" d="m0 0 80 1v1l-12 1h-33l-29 1-1 5-4 1-2-9z" fill="#1D1B1E"/>
<path transform="translate(1603,973)" d="m0 0 5 4 1-3 3 1 5-2v4l-3 2h-4v4l2 1-1 3-5 2-4-1-1-1v-6l-3-5z" fill="#383939"/>
<path transform="translate(1437,1655)" d="m0 0h47l11 2v1h-59z" fill="#262626"/>
<path transform="translate(1760,1436)" d="m0 0h2v16l-1 33h-1v-5h-2l-1-3v-19l-1-14-1-4 3 1 1 2z" fill="#323033"/>
<path transform="translate(874,770)" d="m0 0h2v6l1 1-1 7-3 8-1 6v10l2 22h2v2h2l1 4-4-2-4-4-1-17-1-7 1-16 1-6 2-13z" fill="#1C1A1D"/>
<path transform="translate(460,758)" d="m0 0h38l34 1v1l-39 1h-43v-1z" fill="#6D6D6D"/>
<path transform="translate(554,461)" d="m0 0 2 3 3 28v16l1 23-1 15h-2l-1-8 1-9-1-9 1-4-1-25-1-11z" fill="#1C1A1D"/>
<path transform="translate(1595,538)" d="m0 0 5 1 5 3 3 3v2l5-1 5 1 4-2 2 3-9 2-9-3-2-2h-3l5 4 7 2v1h-7l-6-2-5 1-1-12z" fill="#333134"/>
<path transform="translate(594,256)" d="m0 0 6 1 8 7-4 2-13 1h-17v-1l11-1 4-1 2-5z" fill="#F2F2F2"/>
<path transform="translate(1595,844)" d="m0 0 10 1 4 2 2 4 4 2-2 5-6 4h-3l-1-5-2-5 2-5h-6l-2-1z" fill="#333134"/>
<path transform="translate(1595,1746)" d="m0 0 2 2 1 6 3-1 2 3 2 10v8l-2-2-4-7-1 40h-1l-1-41z" fill="#4C4C4C"/>
<path transform="translate(1116,925)" d="m0 0 4 2 3 2v2l7 1 2 1v2l11 2 2 8-5 1-3-6-5-1-3-3-7-1-3-3-3-1-1 4-1-6h2z" fill="#333134"/>
<path transform="translate(1168,1089)" d="m0 0h26l56 2 2 2-67-1-17-1z" fill="#211F22"/>
<path transform="translate(1597,662)" d="m0 0h1l1 64 1 32h9v1h-10l-2-4-1-26z" fill="#8D4B58"/>
<path transform="translate(1271,236)" d="m0 0h1l3 14 6 8 7 5 3 2h-15l-1-3h-2l-2-12z" fill="#F7F7F7"/>
<path transform="translate(1074,1006)" d="m0 0h11l18 1 2 2 1 18v56l7 1v1h-6l-2-1-1-50-1-21-1-2-10-2-18-2z" fill="#333134"/>
<path transform="translate(618,1703)" d="m0 0 2 3 2 13-1 10h-3l-1 7 25 2-2 2h-23l-1-2v-13l2-3z" fill="#6F6E70"/>
<path transform="translate(1168,939)" d="m0 0 4 2 2 3 3-1 6 3-2 1-2-1 2 3-1 5-6-1-3-3-5-2-2-7z" fill="#333134"/>
<path transform="translate(1535,926)" d="m0 0 3 1 1 2h10l2 1 1-3 3-1 7 3-4 2-7 2h-3l-10-1-7-1-10 2h-4v2h-6l-3-3 7 1 5-4 11-1z" fill="#333134"/>
<path transform="translate(1416,955)" d="m0 0h7l1 6 4 1 1 5h-5v2l3 1-6-1-7-2 3-3-5-4h2z" fill="#333134"/>
<path transform="translate(621,668)" d="m0 0h26l4 2-7 3h-18l-7-1-1-3z" fill="#363637"/>
<path transform="translate(1516,216)" d="m0 0 3 3 2 12v11l-1 4-1 6h-2l-2-17v-9z" fill="#201E21"/>
<path transform="translate(982,1013)" d="m0 0 8 1 3-1h22l7 1 7 2-1 2-11-1-12-1h-21l-9 1-2-3z" fill="#1C1A1D"/>
<path transform="translate(1714,1420)" d="m0 0h49v6l-5 1h-2v-2l-6-3-4 1-3 1-7-2h-22z" fill="#1C1A1D"/>
<path transform="translate(1230,191)" d="m0 0 12 1 6 2h14l2 3v4h4l-1 6h-2l-5-9v-2l-7 4-9-2-11-5z" fill="#262626"/>
<path transform="translate(1638,797)" d="m0 0 4 2 1 6v2l3 1 1 2h4l1-4 2-1 2 3-1 4-5 1h-4l-2-4-5-5-2 1v7l-4 1 2-1 1-5h-3l-1 4-2-4h-3v-3l5-1 3 1 1-5z" fill="#333134"/>
<path transform="translate(364,1663)" d="m0 0h8l-6 8-3 6-1 24h-2v-32z" fill="#FBFBFB"/>
<path transform="translate(1780,432)" d="m0 0h32l9 3-1 2-25-1-15-1z" fill="#323033"/>
<path transform="translate(1668,240)" d="m0 0h2l-1 12 2 8-5 1-2-5-2-3-3-9v-3l7 3z" fill="#1C1A1D"/>
<path transform="translate(1115,335)" d="m0 0 7 1 11 2 2-1h7l14 3v1h-15l-22-1-14-1v-1l9-2z" fill="#333134"/>
<path transform="translate(595,732)" d="m0 0 4 2 1 10-2 3-9-3-4-2 4-2 3-6z" fill="#1C1A1D"/>
<path transform="translate(1386,348)" d="m0 0h32v1l-11 1-1 4 3 1-18-2-3-1v-2l-4-1z" fill="#333134"/>
<path transform="translate(1452,911)" d="m0 0h8v3h-2v2l-2 1h-6l1 5-2 2-5-1-2-4-4-3 12-2z" fill="#333134"/>
<path transform="translate(1843,579)" d="m0 0h1v98l-3-1v-11h1z" fill="#414041"/>
<path transform="translate(882,530)" d="m0 0h2l1 11v40l-2-1-1-14 1-10-2-18-1-3z" fill="#1C1A1D"/>
<path transform="translate(1596,303)" d="m0 0h1l2 6v27h-4l-1-1v-12l2-7v-7l-1-3z" fill="#1E1D1F"/>
<path transform="translate(1468,907)" d="m0 0h9l-2 4 3 1 2-1v3h2l-1 3-5 1-5-3h-6l-4-4h5z" fill="#333134"/>
<path transform="translate(1270,368)" d="m0 0h3l1 16-1 5-1 20-1 6h-1z" fill="#3E292B"/>
<path transform="translate(1649,263)" d="m0 0h31l1 3h-52l1-2z" fill="#E16E86"/>
<path transform="translate(199,1397)" d="m0 0h1v16l-4 2h-11l5-5 7-8z" fill="#FDFDFD"/>
<path transform="translate(1679,1031)" d="m0 0h1v16l-1 38-1-2h-2l1-44 1-1z" fill="#252326"/>
<path transform="translate(1528,1672)" d="m0 0h4l-2 9-1 9v10l2 9 2 2-5 1-2-12-1-8 2-17z" fill="#1C1A1D"/>
<path transform="translate(1561,975)" d="m0 0h5l-3 2-1 10-11 1v-3l1-1v-6l3-2h5z" fill="#383939"/>
<path transform="translate(445,785)" d="m0 0 2 4v39h-1l-2-11v-30z" fill="#353536"/>
<path transform="translate(881,650)" d="m0 0 2 1-1 9 1 3-1 6 4 4-5-1v-2l-6-1 1-7 3-1-1-6h-2l2-4z" fill="#1C1A1D"/>
<path transform="translate(1270,285)" d="m0 0h1l1 64 1 18-3 1z" fill="#333134"/>
<path transform="translate(1250,1091)" d="m0 0h13v1h11l-1 2-4 1-2 2-6-1-2-1h-9l-3 2-5-1-4-2v-2h12z" fill="#282828"/>
<path transform="translate(1839,690)" d="m0 0 4 1v2h2v7l-2 9-3 3-2-3v-13z" fill="#333234"/>
<path transform="translate(1766,1662)" d="m0 0 16 1v2h-4v2l-7 3 4 2 2 2h-6l-5-5 1-2h-2z" fill="#1E1C1F"/>
<path transform="translate(1372,1156)" d="m0 0h16l2 1v2l17 3 2 1 9 1-4 2-12-2-15-4-19-2z" fill="#333134"/>
<path transform="translate(883,581)" d="m0 0 2 3v36l-1 2-1 18h-2v-20l1-5v-10l1-12z" fill="#1C1A1D"/>
<path transform="translate(1211,758)" d="m0 0h55v1l-25 1-1 1h-11v-2l-16 1h-21v-1z" fill="#523C42"/>
<path transform="translate(1599,418)" d="m0 0h1l1 8 1 1 10 1v2h33v1l-39 1h-5l-3-3z" fill="#252525"/>
<path transform="translate(1595,712)" d="m0 0h1l1 24v17l-2-1-2-9v-13z" fill="#1C1A1D"/>
<path transform="translate(1267,233)" d="m0 0h3v11h-3l-1 4-8-1-1-4 1-2h2l1-2 4 2z" fill="#1C1A1D"/>
<path transform="translate(1274,737)" d="m0 0 5 1v7l-1 3-8 5v-11h3z" fill="#333134"/>
<path transform="translate(1812,564)" d="m0 0h1l1 7 1-7h1l2 9v8l-2 5-2-1-1-1-2 2-1-7 1-8z" fill="#333134"/>
<path transform="translate(1257,1791)" d="m0 0 2 4v27l-1 2-19 2-1-2 10-2 7-2 1-9z" fill="#333134"/>
<path transform="translate(1544,976)" d="m0 0h1l1 10-1 1h-11l2-3v-7z" fill="#383939"/>
<path transform="translate(201,1395)" d="m0 0h1l1 7v11l2 1-2 4h-4v2h6l-3 3-5-1-3-4v-2l6-1z" fill="#1E1C1F"/>
<path transform="translate(1263,761)" d="m0 0 3 1-4 3-4 1-5-1v2l-33 1v-2l6-1h9l2 1v-2l6 1 6-2h12z" fill="#333134"/>
<path transform="translate(1514,1127)" d="m0 0h1v37l5 2v7l-1-2-2-1-3-3-3 1h-19v-1l18-1 3-1z" fill="#884754"/>
<path transform="translate(1486,1170)" d="m0 0 14 1 1 2-9 1-4 2-9-1-3 1-6-1v-1z" fill="#333134"/>
<path transform="translate(124,1655)" d="m0 0h3l1 5v21h-3l-1 4z" fill="#1C1A1D"/>
<path transform="translate(1679,702)" d="m0 0h1l3 32 2 6-1 4 1 3-4-2-1-2z" fill="#2A191B"/>
<path transform="translate(1023,288)" d="m0 0h1v47l1 3 4 1-2 2-5-2-1 4v-13z" fill="#656465"/>
<path transform="translate(1183,594)" d="m0 0h2v57h-1v-49l-4-1v-5z" fill="#242324"/>
<path transform="translate(1445,305)" d="m0 0 3 4-1 2-5 2-1 2h-2l-1 6h-2l-1 2v-12l1-5h1v5h2l1-2z" fill="#1C1A1D"/>
<path transform="translate(1231,589)" d="m0 0m-3 0 3 1v2l-44 1v-2l17-1h14z" fill="#1C1A1D"/>
<path transform="translate(954,561)" d="m0 0 10 4v3h-2v2h-4l1 3-1 3-3 1-2-8h2l-1-4z" fill="#333134"/>
<path transform="translate(937,827)" d="m0 0 1 4-6 2 2 2 5 2 1 2h-6l-10-3-2-2 2-2 13-3z" fill="#333134"/>
<path transform="translate(885,479)" d="m0 0h1v9l-2 14v9l-1 4h-2l-1-5 2-13-1-8z" fill="#1C1A1D"/>
<path transform="translate(1646,757)" d="m0 0h7v1l-6 1-16 1-1 3-4-1-11 1-3-2-5-1v-1z" fill="#483439"/>
<path transform="translate(1814,1786)" d="m0 0 2 4-4 7-2 7-3 3-1 4-5-1v-2h2l2-5 6-8z" fill="#1C1A1D"/>
<path transform="translate(1713,1431)" d="m0 0 7 1 8 1 4 2 4 6-6-3-1 1-7-2-8-3-6-1v-1z" fill="#333134"/>
<path transform="translate(1678,1090)" d="m0 0h1v44l-2-1-1-9z" fill="#222223"/>
<path transform="translate(971,524)" d="m0 0 4 4 1 3-4 2h-3v3l-3 1-3-2v-4l5-3v-3z" fill="#333134"/>
<path transform="translate(1760,364)" d="m0 0 3 2v31h-2v-12l1-2-2-1-1-12z" fill="#1C1A1D"/>
<path transform="translate(1674,931)" d="m0 0 3 2 3-1v3l5 2 6 4-1 2h-2v-2h-7l-6-2-2-4z" fill="#333134"/>
<path transform="translate(1604,1774)" d="m0 0h2l1 8 1 14-3 9-2-1v-8l1-2z" fill="#262626"/>
<path transform="translate(447,759)" d="m0 0h2l1 3-2 3-1 24-3-2v-22l4-2z" fill="#3E3F3F"/>
<path transform="translate(1550,189)" d="m0 0 7 1v1l-9 2-14 1-7 1-4-5 5 1v2l9-3z" fill="#262626"/>
<path transform="translate(1285,349)" d="m0 0 2 1-2 3 2 1-3 4-1 6-1 10h-1v-15l1-5-1-1-1 4-3 3v-6l2-4z" fill="#333134"/>
<path transform="translate(1269,187)" d="m0 0h1l1 41v17h-1l-1-5h-1z" fill="#545455"/>
<path transform="translate(1194,1092)" d="m0 0h44v1l-11 1-3 2h-5l-2-2h-10l-3 1-10-2z" fill="#262626"/>
<path transform="translate(697,1795)" d="m0 0 3 3 2 12-3 8h-2z" fill="#302E31"/>
<path transform="translate(1104,1040)" d="m0 0h1v21h-3l-2-4 1-11 2-2z" fill="#262626"/>
<path transform="translate(536,431)" d="m0 0 3 4 1 10h2v2h2v2l5 1v2h2v4l-4-2v-2h-2v-2l-5-1-3-5z" fill="#1C1A1D"/>
<path transform="translate(1109,242)" d="m0 0 1 4-1 7-1 4-5 2v-11h2l1-3z" fill="#1C1A1D"/>
<path transform="translate(1455,924)" d="m0 0 4 1-1 7-10-2-2-3-5-1v-1h8 3z" fill="#333134"/>
<path transform="translate(1189,429)" d="m0 0 47 1v1l-13 1h-26l-8-2z" fill="#272627"/>
<path transform="translate(683,1744)" d="m0 0 4 1 7 3 1 1v12l-6-9z" fill="#E9E9E9"/>
<path transform="translate(940,1662)" d="m0 0h13l-4 3-10 6-3 2 2-9h2z" fill="#EDEDED"/>
<path transform="translate(1104,946)" d="m0 0 2 3 2 9-1 5v17l-2-1-1-27z" fill="#1C1A1D"/>
<path transform="translate(1432,835)" d="m0 0 1 2 7 1 16 2 1 2h-17l-8-2z" fill="#2E2324"/>
<path transform="translate(1623,772)" d="m0 0 3 1v2h14l4 2v1l-16 1-4-1-1-1z" fill="#383939"/>
<path transform="translate(1290,1092)" d="m0 0h15v1l-18 3-7 1-5-3v-1z" fill="#262626"/>
<path transform="translate(927,1773)" d="m0 0h1v42l-3-3v-26z" fill="#333134"/>
<path transform="translate(1515,807)" d="m0 0h2l1 29-4 4-2-2 2-1 1-13z" fill="#582727"/>
<path transform="translate(288,1269)" d="m0 0 1 3-1 21-2 4-2-1v-9l1-6h2v-11z" fill="#1C1A1D"/>
<path transform="translate(1139,1088)" d="m0 0h32l-3 2-7 1-22-1z" fill="#201E21"/>
<path transform="translate(1761,956)" d="m0 0h1v29l-1 16h-1v-15l-3-1 1-5h2z" fill="#636364"/>
<path transform="translate(928,429)" d="m0 0h5l1 2-5 3-18 5-6 1 3-3 8-3 2-3 5 1h5z" fill="#1C1A1D"/>
<path transform="translate(1750,1420)" d="m0 0h13v6l-5 1h-2v-2l-6-3z" fill="#1D1B1E"/>
<path transform="translate(1840,896)" d="m0 0h1v24l-4-2v-8z" fill="#252525"/>
<path transform="translate(1270,753)" d="m0 0 4 1v6l-7 1h-26v-2l25-1 3-1z" fill="#1C1A1D"/>
<path transform="translate(603,1663)" d="m0 0 7 1 4 5v10l-6-9z" fill="#eee"/>
<path transform="translate(1757,1585)" d="m0 0h1l1 6-1 2h2l1 5 1 7v8h-1v-5l-3-1-1-9z" fill="#333134"/>
<path transform="translate(477,934)" d="m0 0 10 1 9 2 7 1 9 3-1 2-25-5-9-3z" fill="#1C1A1D"/>
<path transform="translate(533,583)" d="m0 0 8 4 1 3-3 6-5 5 2-13-4-3z" fill="#1C1A1D"/>
<path transform="translate(1670,427)" d="m0 0h7l-2 1v2h-15l-14 1v-3z" fill="#46282A"/>
<path transform="translate(1353,347)" d="m0 0 9 2v2l8 1v1l-8 1-9-1-1-5z" fill="#383939"/>
<path transform="translate(131,1534)" d="m0 0h2v9l-2 3v7l-3 2v-13l1-6z" fill="#1C1A1D"/>
<path transform="translate(1298,976)" d="m0 0 4 2 1 5-4 2h-5v-2l-2-1 4-5z" fill="#333134"/>
<path transform="translate(1523,914)" d="m0 0 7 1v2l7 2h5l-2 3-8 1-3 1-1-5-4-2z" fill="#333134"/>
<path transform="translate(307,814)" d="m0 0 2 2 1 3v9l-1 5-2-3-3-13h2z" fill="#1C1A1D"/>
<path transform="translate(1418,1655)" d="m0 0h19l-1 3h-17l-6-1v-1z" fill="#333134"/>
<path transform="translate(1758,986)" d="m0 0h2v15h-12v-1h6l2-4z" fill="#242324"/>
<path transform="translate(851,933)" d="m0 0h8l-3 2-7 5-11 1 5-4z" fill="#1C1A1D"/>
<path transform="translate(1492,907)" d="m0 0 5 3v4l5 1-1 2h-2v-2l-9-1h-2v-4l-2-1z" fill="#333134"/>
<path transform="translate(520,589)" d="m0 0 4 1-2 1v3l-6 1-1-3-29-1v-1z" fill="#626262"/>
<path transform="translate(1600,1818)" d="m0 0 3 3 5 2v2h3l1-3 8 1v3h-16l-4-4z" fill="#1E1C1F"/>
<path transform="translate(1739,1501)" d="m0 0 2 4 1 6v8l-4 4-2-3 1-9 1 4h2z" fill="#333134"/>
<path transform="translate(1377,953)" d="m0 0 5 1 2 2-1 5h-5l-4-5z" fill="#333134"/>
<path transform="translate(1202,762)" d="m0 0 1 2h12l4 2-4 2-12-1-9-1 1-2z" fill="#333134"/>
<path transform="translate(1041,266)" d="m0 0h9l1 5-6 2-11-1 1-3 9 2v-2h-2z" fill="#2A2A2A"/>
<path transform="translate(1673,1089)" d="m0 0 4 2 1 14-1 5h-1v-16l-9 1v-2l5-1z" fill="#333134"/>
<path transform="translate(1514,1166)" d="m0 0 1 2-7 1-1 3-6 1-1-1-7-1v-1h5v-2l13-1z" fill="#232223"/>
<path transform="translate(1580,921)" d="m0 0 3 1-10 4v5l-2-1 1-2h-6l-1-2 1-2h2l1-2h9z" fill="#333134"/>
<path transform="translate(1636,860)" d="m0 0 5 1 3 6-4 1h-5l-3-3v-2l3-1z" fill="#333134"/>
<path transform="translate(616,1702)" d="m0 0 2 1 1 19-2 4-1-1z" fill="#262626"/>
<path transform="translate(1738,1524)" d="m0 0h1v20l-1 6-2-4-2 2v-8l2-3 1-1z" fill="#333134"/>
<path transform="translate(1340,955)" d="m0 0 5 1 2 1v6l-4 1-4-2z" fill="#333134"/>
<path transform="translate(937,665)" d="m0 0 3 4 10 2 10 1 2 2h-12l-9-2-5-4z" fill="#323032"/>
<path transform="translate(1736,1652)" d="m0 0 4 3-1 5-10 3-7-1 4-2h7l2-1z" fill="#333134"/>
<path transform="translate(1168,1089)" d="m0 0h26l-1 2-8 1-17-1z" fill="#232124"/>
<path transform="translate(1681,751)" d="m0 0 3 1-1 7-5 1-6-2 4-2z" fill="#1F1B1D"/>
<path transform="translate(1350,293)" d="m0 0h1v14l-1 14-4 1 1-5 1-11 1-2z" fill="#1E1C1E"/>
<path transform="translate(600,311)" d="m0 0 1 2-6 10h-5l-2-4 1-3 3 3z" fill="#1C1A1D"/>
<path transform="translate(1605,964)" d="m0 0 2 4h7l2 2-6 1-1 3-9-6h2v-2z" fill="#383939"/>
<path transform="translate(1104,304)" d="m0 0h6l2 1-1 5h-9l-1-4z" fill="#333134"/>
<path transform="translate(1024,1818)" d="m0 0 3 1v2h2l2 4 13 1v1h-17l-3-4z" fill="#424142"/>
<path transform="translate(699,1764)" d="m0 0 3 2 2 9-2 1v-2l-5 1-1-7 2-1z" fill="#333134"/>
<path transform="translate(1596,1742)" d="m0 0 4 1 1 6-1 5-3 1-2-12z" fill="#1D1B1E"/>
<path transform="translate(1128,919)" d="m0 0 5 5h4v2l-6 2-3-1v-3l-5-1 2-3z" fill="#333134"/>
<path transform="translate(1679,592)" d="m0 0 3 2v2h2v7l-2 10h-1l-1-10h-1z" fill="#371919"/>
<path transform="translate(1275,405)" d="m0 0h1v6l-4 1v15l-3 2 2-20z" fill="#353033"/>
<path transform="translate(330,1721)" d="m0 0h1v15l1 1v6l-2 2-3-13z" fill="#1C1A1D"/>
<path transform="translate(1634,976)" d="m0 0 4 4-2 4-3 1-3-2v-5z" fill="#333134"/>
<path transform="translate(1022,1658)" d="m0 0h3v11l-1 9h-1l-1-16-5-1v-2z" fill="#1E1D1F"/>
<path transform="translate(1761,434)" d="m0 0h3v2l8 1 2 3h-11l-4-5z" fill="#333134"/>
<path transform="translate(1714,356)" d="m0 0 3 3v5l-4 1-3-2 1-5z" fill="#333134"/>
<path transform="translate(1256,255)" d="m0 0 2 1v2l8-1 2 4-9 1-3-2z" fill="#1C1A1D"/>
<path transform="translate(1620,1087)" d="m0 0h14l-3 3h-22l-3-2z" fill="#222023"/>
<path transform="translate(1720,1542)" d="m0 0 4 4v4h-2l1 4h-2v6h-3l1-8 1-1z" fill="#333134"/>
<path transform="translate(939,640)" d="m0 0 6 4 8 1v2h-11l3 3-6-1z" fill="#333134"/>
<path transform="translate(1829,435)" d="m0 0 7 2 3 5 2 2v15h-1l-1-13-3-2-2-5-5-2z" fill="#333134"/>
<path transform="translate(1267,244)" d="m0 0 2 3v13h-2l-2-7z" fill="#333234"/>
<path transform="translate(1790,856)" d="m0 0h6l2 5-5 2-4-4z" fill="#333134"/>
<path transform="translate(897,757)" d="m0 0h9v1l-15 4-4 2-2 3h-2l2-4 4-3z" fill="#1C1A1D"/>
<path transform="translate(1270,349)" d="m0 0h2l1 18-3 1z" fill="#2F2E30"/>
<path transform="translate(1715,281)" d="m0 0h7l4 2v2l-4 1-3-1-1 2-2-2-3-1v-2z" fill="#1C1A1D"/>
<path transform="translate(1297,266)" d="m0 0 28 2v1l-18 1-9-1z" fill="#4B4A4C"/>
<path transform="translate(1736,1441)" d="m0 0 4 3 1 8-1-2-1 5-2-3-2-9z" fill="#333134"/>
<path transform="translate(1565,813)" d="m0 0 3 2-2 4h-2l-1 3-4-1 2-6h4z" fill="#333134"/>
<path transform="translate(1587,807)" d="m0 0h2l-1 5 4 2-4 3-4-1 1-7z" fill="#333134"/>
<path transform="translate(1830,430)" d="m0 0h13v5h-4l-4-3h-5z" fill="#1D1B1E"/>
<path transform="translate(1679,234)" d="m0 0 2 1v3h2v9h-2v6h-1l-1-15z" fill="#1D1B1E"/>
<path transform="translate(1580,976)" d="m0 0 4 1 1 7-4 1-2-2z" fill="#333134"/>
<path transform="translate(1566,962)" d="m0 0h3l1 3 12 2 1 2-14-1-5-5z" fill="#383939"/>
<path transform="translate(578,304)" d="m0 0 6 2 3 8 1 2-4-1-6-9z" fill="#1C1A1D"/>
<path transform="translate(1726,1645)" d="m0 0 3 1-1 5 2 1h-2l-2 7-5-1 3-1z" fill="#333134"/>
<path transform="translate(290,1141)" d="m0 0 2 1 1 8-2 2-2 4-1-5v-8h2z" fill="#232323"/>
<path transform="translate(1327,959)" d="m0 0 5 2 4 4-2 1h-6l-2-6z" fill="#333134"/>
<path transform="translate(1609,902)" d="m0 0 2 1-1 3 2 1v2l4-2 2 2-3 1h-11v-2l2-2z" fill="#333134"/>
<path transform="translate(1016,750)" d="m0 0h4v4h-22v-1l14-1z" fill="#989898"/>
<path transform="translate(601,746)" d="m0 0h2v5l-1 1-14-1v-2h13z" fill="#343235"/>
<path transform="translate(1628,1823)" d="m0 0 16 1-4 2h-5l-1 1h-9v-3z" fill="#1C1A1D"/>
<path transform="translate(1269,1092)" d="m0 0h5l-1 2-4 1-2 2-6-1-2-1v-2z" fill="#262626"/>
<path transform="translate(1602,759)" d="m0 0 13 1v1h-8l-1 3h-5l-2-3z" fill="#1F1D1F"/>
<path transform="translate(1812,542)" d="m0 0 2 1v17l-2 3-1-10z" fill="#333134"/>
<path transform="translate(1747,979)" d="m0 0 2 3v2l-3 2-9-1-1-5h3v3h6z" fill="#333134"/>
<path transform="translate(1620,826)" d="m0 0 8 2v6l-3 1-3-3z" fill="#333134"/>
<path transform="translate(1815,520)" d="m0 0 2 3-1 10-2 7h-1v-9z" fill="#333134"/>
<path transform="translate(1599,418)" d="m0 0h1l1 8 1 1 10 1-3 2h-10l-1-4z" fill="#4D1D1E"/>
<path transform="translate(277,1810)" d="m0 0 6 1-1 5-7 1 2-2-1-4z" fill="#1C1A1D"/>
<path transform="translate(122,1418)" d="m0 0h14l2 1-1 3h-5v-2l-10-1z" fill="#525252"/>
<path transform="translate(1438,1170)" d="m0 0 9 3 1 2h-9l-5-4z" fill="#333134"/>
<path transform="translate(1709,999)" d="m0 0h13l-1 3h-13z" fill="#312F32"/>
<path transform="translate(1802,491)" d="m0 0 2 3 1 5h-2v2l-3 1-1-3 2-7z" fill="#333134"/>
<path transform="translate(1818,472)" d="m0 0 4 1v9h-2l-1 5h-1z" fill="#333134"/>
<path transform="translate(1760,364)" d="m0 0 3 2v8l-1 4h-2l-1-8z" fill="#1E1C1E"/>
<path transform="translate(698,1819)" d="m0 0h2l3 6h6v2h-10l-1-1z" fill="#252525"/>
<path transform="translate(1220,975)" d="m0 0 4 1 1 2-2 4-4 1-1-6h2z" fill="#333134"/>
<path transform="translate(1735,1569)" d="m0 0 4 4-1 8-2 2-1-2z" fill="#333134"/>
<path transform="translate(1153,939)" d="m0 0 7 1 2-1 2 2-6 3-3 3h-1z" fill="#333134"/>
<path transform="translate(1519,239)" d="m0 0h2l-2 13h-2l-1-11z" fill="#1C1A1D"/>
<path transform="translate(1132,960)" d="m0 0 8 2v2h2l1 4-6-2-5-5z" fill="#333134"/>
<path transform="translate(1833,848)" d="m0 0 2 1-2 4v2l3-1-2 7h-2l-1-2v-9z" fill="#333134"/>
<path transform="translate(1601,824)" d="m0 0 4 2-1 5h-5l-3-4 4 1 2 1-2-4z" fill="#333134"/>
<path transform="translate(1692,761)" d="m0 0 8 1-1 2-6 2-4 1-1-4z" fill="#333134"/>
<path transform="translate(1185,737)" d="m0 0h1l1 18-4 2 1-5z" fill="#1D1B1E"/>
<path transform="translate(966,507)" d="m0 0 3 1 1 7h-4l-2-5z" fill="#333134"/>
<path transform="translate(1498,344)" d="m0 0h10l6 1v1h-8l-1 1h-9z" fill="#333134"/>
<path transform="translate(197,1415)" d="m0 0 2 3v2h6l-3 3-5-1-3-4v-2z" fill="#1C1A1D"/>
<path transform="translate(1678,1068)" d="m0 0h1v17l-1-2h-2l1-14z" fill="#1C1A1D"/>
<path transform="translate(1705,1536)" d="m0 0h6l3 5-4 2-5-5z" fill="#333134"/>
<path transform="translate(444,810)" d="m0 0 3 2v16h-1l-2-11z" fill="#333234"/>
<path transform="translate(982,657)" d="m0 0 5 1 1 5h-5l-2-4z" fill="#333134"/>
<path transform="translate(1263,1691)" d="m0 0h3v7l-4 2v-8z" fill="#333134"/>
<path transform="translate(1253,1628)" d="m0 0 5 1v4h-7z" fill="#333134"/>
<path transform="translate(1820,822)" d="m0 0h1l2 6 2 1-1 4-4-1-1-8z" fill="#333134"/>
<path transform="translate(1299,357)" d="m0 0 3 1h-2l1 6-5 2-1-4z" fill="#333134"/>
<path transform="translate(1329,342)" d="m0 0h10l-2 3h-8l-4-2z" fill="#343235"/>
<path transform="translate(130,1512)" d="m0 0 2 2-1 14-2-2v-8z" fill="#1C1A1D"/>
<path transform="translate(1743,1460)" d="m0 0 2 3-1 7-2-2-2 1v-8l2 1z" fill="#333134"/>
<path transform="translate(1508,1169)" d="m0 0h4l-2 4-5 2h-4l1-3 5-1z" fill="#333134"/>
<path transform="translate(1816,509)" d="m0 0 3 1 1 4-2 4-1-1-1 2h-2z" fill="#333134"/>
<path transform="translate(1538,340)" d="m0 0h13l3 2-8 1-16-1v-1z" fill="#333134"/>
<path transform="translate(294,1289)" d="m0 0h1l-1 13-1 7h-1v-15z" fill="#333134"/>
<path transform="translate(645,668)" d="m0 0 6 1-3 3-6 1-4-1h3v-2z" fill="#333134"/>
<path transform="translate(1495,278)" d="m0 0 4 1-2 4-7-1v-3z" fill="#1C1A1D"/>
<path transform="translate(931,1684)" d="m0 0 2 1v5h-1l-1 11-2-2 1-13z" fill="#333134"/>
<path transform="translate(1735,1551)" d="m0 0h1l-1 12-2 6h-1v-8z" fill="#333134"/>
<path transform="translate(1723,1529)" d="m0 0h1l1 7-2 3h-2l-1-6 1-3z" fill="#333134"/>
<path transform="translate(1633,896)" d="m0 0h3v6l-3 2-2-5z" fill="#333134"/>
<path transform="translate(1799,502)" d="m0 0 3 1 2 5-1 5-2 1 1-7h-2z" fill="#333134"/>
<path transform="translate(1109,212)" d="m0 0 4 3v6h-2l-1 3-1-6z" fill="#262626"/>
<path transform="translate(328,1776)" d="m0 0h2v6l-4 7-1-3 2-7z" fill="#1C1A1D"/>
<path transform="translate(610,1662)" d="m0 0 5 1 1 5h-4l-2-3z" fill="#2E2D2F"/>
<path transform="translate(1689,1434)" d="m0 0 1 2h7l5 2v1l-11-1-6-2z" fill="#333134"/>
<path transform="translate(202,1412)" d="m0 0 3 2-2 4h-6l1-3z" fill="#1D1B1E"/>
<path transform="translate(290,1319)" d="m0 0h2l3 9 4 3-3 1-3-2-2-4z" fill="#333134"/>
<path transform="translate(1405,961)" d="m0 0 3 1 1 3-3 4-4-3z" fill="#333134"/>
<path transform="translate(1361,954)" d="m0 0 3 2v4l-4 1-2-5z" fill="#333134"/>
<path transform="translate(1623,861)" d="m0 0 3 3-3 5-3-3v-3z" fill="#333134"/>
<path transform="translate(902,440)" d="m0 0 3 1-3 1-2 5-2 3-1-5z" fill="#1C1A1D"/>
<path transform="translate(1757,307)" d="m0 0 1 4h3v6l-3 2-1-7z" fill="#262626"/>
<path transform="translate(122,1748)" d="m0 0h1l1 16 1 4-3-1z" fill="#262626"/>
<path transform="translate(123,1701)" d="m0 0 3 2v6l-2 7h-1z" fill="#252525"/>
<path transform="translate(349,1691)" d="m0 0h1v8l-2 8-2-2-1-4 3-3z" fill="#1C1A1D"/>
<path transform="translate(1104,1069)" d="m0 0h1v12l-1-4-3-1v-4h3z" fill="#262626"/>
<path transform="translate(1543,964)" d="m0 0 3 1 1 4-5 1-3-3h3z" fill="#383939"/>
<path transform="translate(1185,754)" d="m0 0 5 2 1 4h-5l-2-3z" fill="#252023"/>
<path transform="translate(1841,665)" d="m0 0 3 2v10l-3-1z" fill="#333134"/>
<path transform="translate(663,654)" d="m0 0 2 1v6l-2 4-4-2 3-5z" fill="#1C1A1D"/>
<path transform="translate(1799,515)" d="m0 0 2 1 1 6-4 1-1-4z" fill="#333134"/>
<path transform="translate(1800,469)" d="m0 0h6l-1 5-3 1z" fill="#333134"/>
<path transform="translate(1717,367)" d="m0 0 4 1-2 4-3 2-2-3z" fill="#333134"/>
</svg>
