<?xml version="1.0" encoding="UTF-8"?>
<svg version="1.1" viewBox="0 0 2048 2048" width="1280" height="1280" xmlns="http://www.w3.org/2000/svg">
<path transform="translate(1076,278)" d="m0 0h143l6 1 1 40 2 15 4 8 8 7 16 3 27 2 28 1 3 1 1 10-1 62h75l2-67 1-6 66-1 6-1 1-17 1-49 1-8 1-1h113l36 1 1 1v22l-1 50 29 1 47 2 1 1v148l27 1 47 1 1 1 1 218 2 8 4 4 10 5 22 3 36 2 1 1v57l-3 2-45 2-13 2-6 4-6 7-1 3-1 16v27l2 23 3 8 4 4v2l10 3 10 1 44 1 2 1v46l-2 1-39 3-19 1-2 5-3 2-83 5-3 1v71l-4 1-25 1-45 1-1 30-1 114v244l-5 2-35 1h-35v34l-2 353-5 5-6 5v16l-1 40-1 1-13 1h-111l-1-1-1-10-1-46-3-6-9-10-3-1-70-1-2-2-1-17v-76l1-56-88-1v225l-2 1-39 1-66 1h-30l-2-1-1-7-1-50-4-7-8-9-3-1-71-1-1-3-1-22v-126l-74-1v41l-1 106-1 16-8 4h-2l-1 58-7 2h-118l-8-10-5-5-1-2-1-9v-50l-39 1h-35l-1-3-2-54-3-6-9-11-5-1-69-1v41l-1 91-3 6-11 11-2 1-31 1-69 1h-20l-3-3-1-53-4-8-8-9-7-2-66-1-2-3-1-12v-137h-74l-1-5-1-77v-1081h-73l-2-2v-142l1-7 32-1 113 1 6 2v26l-1 46 58 2 18 1 1 1v63l-1 403 56-1h161l84 1 15 1 1 10v62l8 1h66v-380l1-58 1-25 2-4h66l5-2 1-4 2-65 1-4 67-1 4-1 2-8 1-44 1-20 2-2h57l11-1 3-3 1-12 1-54z" fill="#333434"/>
<path transform="translate(1076,278)" d="m0 0h143l6 1 1 40 2 15 4 8 8 7 16 3 27 2 28 1 3 1 1 10-1 62h75l2-67 1-6 66-1 6-1 1-17 1-49 1-8 1-1h113l36 1 1 1v22l-1 50 29 1 47 2 1 1v148l27 1 47 1 1 1 1 218 2 8 4 4 10 5 22 3 36 2 1 1v57l-3 2-45 2-13 2-6 4-6 7-1 3-1 16v27l2 23 3 8 4 4v2l10 3 10 1 44 1 2 1v46l-2 1-39 3-19 1-2 5-3 2-83 5-3 1v71l-4 1-25 1-45 1-1 30-1 114v244h-3v-41l-1-276-2 6-49 3-67 1h-31v71l-1 3-9 1h-62l-5-1-1-4 1-71-78 2-28 1h-132l-57-3-9-1-2-3-2-15-3-49-1-7-24-2-112-4-19-1-2-2-2-45v-28l1-1h-66-3l-3 1-1-70v-310l1-58 1-25 2-4h66l5-2 1-4 2-65 1-4 67-1 4-1 2-8 1-44 1-20 2-2h57l11-1 3-3 1-12 1-54z" fill="#333434"/>
<path transform="translate(1026,965)" d="m0 0h33l6 4 3 6 7 43 5 25 34 1h297l52 1 103 1 42 1 12 1-1 31-1 114v244h-3v-41l-1-276-2 6-49 3-67 1h-31v71l-1 3-9 1h-62l-5-1-1-4 1-71-78 2-28 1h-132l-57-3-9-1-2-3-2-15-3-49-1-7-24-2-112-4-19-1-2-2-2-45v-28l1-1 8-1 72-2 3-1z" fill="#B4150C"/>
<path transform="translate(847,509)" d="m0 0h1l1 231h148l1 72-4 2-43 1h-102l-1 77h36l113 2 1 1v74l-41 1-70 1h-35-3l-3 1-1-70v-310l1-58z" fill="#858888"/>
<path transform="translate(1026,965)" d="m0 0h33l6 4 3 6 7 43 5 25 34 1h297l52 1 103 1 42 1 12 1-1 31-1 114v244h-3v-41l-1-276-2 6-49 3-67 1h-31v-2l85-1 37-2h8l1-8-4-2-2-2-3-12 1-12-2-4-1-8-1-1v-14l6-10v-2l-41-1h-21l-88-1h-257l-31 1-6 2-12 1-9 3 3 3-3 5-3 1v2l-3 1-1 2h-2v2l-4 4-5 2-15 1h-5l-3 1v2h-2v16l3 20 4 4 6-1 2-2 1-4 3-1 8 8 13 5 8 1 33 2h109l40-1h77l-1 2h-37l-69 2h-132l-57-3-9-1-2-3-2-15-3-49-1-7-24-2-112-4-19-1-2-2-2-45v-28l1-1 8-1 72-2 3-1z" fill="#95110F"/>
<path transform="translate(1212,661)" d="m0 0h18l1 1 1 8v140l-3 5-5 2-36 1h-26l-5-2-2-3-2-111v-39l3-1h23z" fill="#F9DC36"/>
<path transform="translate(1543,662)" d="m0 0h77l1 4v97l-1 50-4 2-9 1-33 1h-27l-3-1-1-10-1-40v-103z" fill="#F9DE35"/>
<path transform="translate(1617,280)" d="m0 0h1v22l-1 50h9v1h-7l1 5v146l-4 1-15 1h-49l-9-2 1-128 1-21 18-3 34-2h19v-60z" fill="#DD647F"/>
<path transform="translate(847,879)" d="m0 0h1v13h36l113 2 1 1v74l-41 1-70 1h-35-3-3l1-5z" fill="#858787"/>
<path transform="translate(1226,330)" d="m0 0 6 12 8 7 16 3v1h-11l-15-1 1 10 1 24 1 44v73l-1 1-22 2h-48l-5-3 1-143 2-7 11-2 9-1h48l-2-12z" fill="#DD647F"/>
<path transform="translate(251,353)" d="m0 0 122 1 4 1-1 67-3-2-2-13-2-12-2-4-10-3-8-7-8-4-12-3-11-2-32-3-13-2-21-3-16-3-5 1 1 106 1 2 5-1-1 3 2 1-4 1v2l-4-2 1 21 5 3h11l40 2 6 1 11 1 4 7 1 10 3 9 4 23 3 9 1 11 2 9 1 12 1 22 1 11v33l1 8-1 5 1 4v13l-1 5v37l-1 5 1 5-1 3-1 26-1 4 1 7-2 5 2 6-3 5-2 1-1 21-2 17v11l-1 7v13l-3 21-2 6-1 2-2 2v3l2-4-1 22-1 10-1 3v32h-2l-1-11v-441l-1-5-73-1-2-2v-142l1-7z" fill="#1E1C1F"/>
<path transform="translate(1225,1668)" d="m0 0h1v225l-2 1-39 1-66 1h-30l-2-1-1-7-1-50-4-7-6-8h6l1 3 5 1 1-3h23l68 1 45 2v-141z" fill="#979A9B"/>
<path transform="translate(922,1670)" d="m0 0h1v39l-1 106-1 16-8 4h-2l-1 58-7 2h-118l-8-10-5-5-1-2-1-9v-46h2v3l6-1h29l84 1h25l3-1 1-49 1-102z" fill="#979A9B"/>
<path transform="translate(606,1766)" d="m0 0h1l-1 110-3 6-11 11-2 1-31 1-69 1h-20l-3-3-1-53-4-8-7-8v-1h6l3 3v2h3v-4h17l112 3 8 1 1-53z" fill="#96999A"/>
<path transform="translate(1390,1822)" d="m0 0 5 1 3 4v2h3l2-4h28l66 1 43 1-2 4-8 6v16l-1 40-1 1-13 1h-111l-1-1-1-10-1-46-3-6-8-9z" fill="#96999A"/>
<path transform="translate(1390,1127)" d="m0 0h37l37 1 1 2v71l-1 3-9 1h-62l-5-1-1-4 1-70z" fill="#F9DC36"/>
<path transform="translate(1394,819)" d="m0 0h26l38 1 6 1v17l1 13v41l-1 1-10 1h-62l-5-5v-37l1-28 1-4z" fill="#EF7D92"/>
<path transform="translate(1547,424)" d="m0 0 21 1 20 1 18-1 10 1 1 6 1 10v60l-7 2h-68v-5h2v-18l1-54z" fill="#EF7D92"/>
<path transform="translate(1467,893)" d="m0 0h71l2 1 1 21v45l-2 6-59 2-11-1-1-2-1-20-1-29v-21z" fill="#4B4C4C"/>
<path transform="translate(1162,426)" d="m0 0 16 1 6 2 3-1v2l6-1h16l17 1 3 13 1 23v36l-2 1-37 2h-32l-1-5 1-8 1-62z" fill="#EF7D92"/>
<path transform="translate(1338,894)" d="m0 0h34l13 1 2 6 2 16 3 11-1 13-1 12-3 11-2 2-57 1-11-1-2-2 2-51 2-16 9-2z" fill="#4B4C4C"/>
<path transform="translate(1770,731)" d="m0 0 5 5 8 5 15 3 27 2 19 1 1 1v57l-3 2-45 2-13 2-6 4-6 7-1 3-1 16h-1v-22l2-7 2-1h6v-3l-7-1v-58l1-4v-2h-2z" fill="#858888"/>
<path transform="translate(377,430)" d="m0 0 75 1v430l-3-2-2-6-2-30-1-16v-13l-1-24-1-37v-93l1-29 1-34 1-41v-57l-3-16-3-4h-6l-3-3-4-8-7-5-27-5-11-1 2 1v2h-4l-2-5-1-4z" fill="#1C1A1D"/>
<path transform="translate(1769,868)" d="m0 0h1l2 23 3 8 4 4v2l10 3 10 1 44 1 2 1v46l-2 1-39 3-19 1-2 5-3 2h-5l-1-29v-37l-3-4-2-8z" fill="#96999A"/>
<path transform="translate(510,897)" d="m0 0h161l84 1 11 1v19h-5l-3-3-5-2v-2l-19-2h-20l-23 1-31 1h-30l-48 1-15-1-25-1-39-3-16-1-7-1-18-2-2 1-4-3v-2l11-1z" fill="#212022"/>
<path transform="translate(849,505)" d="m0 0h18l49 1 2 2-3 1-11 1-8 4-7 1v-3l-14 4-10 6-5 6-2 8-1 6v159l-1 5v23l1 1 1-6 2-4v12l-4 5-5 1v3l-3-1v-234z" fill="#222022"/>
<path transform="translate(1315,1669)" d="m0 0 5 2 1 7 1 2v6l2 10 2 24v63h3l6 10 3 6-1 6h-2l1 5 16 3 22 2 19 2 8 2 3 2v2l-5 2 1 4h-2l-4-6-8-2-70-1-2-2v-51z" fill="#1E1D1F"/>
<path transform="translate(879,972)" d="m0 0h38l3 73 1 1 71 3 60 2 24 2 1 1 1 7 2 35v10l-2-2v-7h-3l-3-19-2-5-10-3-1-3 8 1-3-6v-2l6-2-4-2h-47l-27-1h-21l-18-1h-17l-14-1-3-6-3-2v-2l-3-1-2-7-2-17-1-25-1-5h-6l-2-7-13-2-13 1-5 1-3-1 5-3h2v-2h2v-2z" fill="#1C1A1D"/>
<path transform="translate(1076,278)" d="m0 0h143l6 1 1 40 2 31h-6l-2-6-5-3-7-6v-2h6l5 4-1-3v-26l1-10-3-6-10-4-2-2-10-1 2 3 3 2v2h2v6l-5-3-3-5v-2l-10-4h-30l-15 1-18 4-10 4-2 2-7 3-3 3h-2l-2 4 1-6 6-5 1-4 10-5 7-2-15 1-11 4-5 4-3 13-1 17-3 8h-2v-9h-2l1-39-3-1z" fill="#201D20"/>
<path transform="translate(1769,868)" d="m0 0h1l2 23 3 8 4 4v2l10 3 10 1 44 1 2 1v46l-2 1-39 3-19 1-2 5-3 2h-5v-24h1v13l7-3 4-2h10l13-1 7-1h13l7 2 1 2h5l1-40-4 2-2 3h-2v3l-2 1v9l-2 3h-3v-4l-2 1-1 3h-10l-1-6 2-3-6-3-9-2-3-1-6 1h-12l-4-4-1-2-1 24h-1v-37l-3-4-2-8z" fill="#858888"/>
<path transform="translate(1626,354)" d="m0 0h39l27 1v82l-3-2 1-4v-9l-3-2v29l1 18 1 4 3 1v7l-3 1-2-4-2-25-1-21v-12l-1-18-2-9-5-1-4-5-4-7-3-7-5-4-9-1-25-1v-3h-2z" fill="#1D1B1E"/>
<path transform="translate(1468,278)" d="m0 0h113l36 1v11l-1 3-1 45-2 2-3-2v-39l-1-6h-2v-2l-11-1-9-3-14-4-7-1h-61l-12 2-8 4-9 3-1 7-1 4v15l1 3-2 13-1 8-1 4-3 1-1-1v-66z" fill="#201D20"/>
<path transform="translate(1392,355)" d="m0 0h62l3 1 5 1-3 2-10 3-15 2-14 7-4 3-11 2-3 6-3 19-3 10-2 5-2 4-1-8v-51z" fill="#1F1C1F"/>
<path transform="translate(847,509)" d="m0 0h1l1 246-1 124v91l-2 1-1-69v-310l1-58z" fill="#eee"/>
<path transform="translate(987,1068)" d="m0 0h11l12 1 4 5 7-1 2 2-5 3-5 1-5-2v4l7 2 6 3 2 6h-2l-2 9 1 5v2 3h2v2l2 1-9-1-6-3 1-7-4-1-2-6-3-3 3-1-3-2-7 1v-2h-4v-3l-7-1-1-2h-9l-4-3-9-2-9-1-2-2-3-2 7-1 9 2 15 3 1-4 2-2 1-2z" fill="#1C1A1D"/>
<path transform="translate(1238,669)" d="m0 0 2 3v9l3 16 1 7v14l1 5v42l-4 15-4 6-2 13-3 4-1-22 1-102h2l3 15 1 25v40l-2 15-1 3h2l1-7 1-42v-35l-3-12z" fill="#28191B"/>
<path transform="translate(1351,1129)" d="m0 0h37v75h5v1h-6l-1-6-5-1-2-7-1-8h2l2 4 1-2-2-5-2-33-1-8-9-1-17-1-5-2h-24l-6 1-1-5h-6v-1z" fill="#2B181B"/>
<path transform="translate(1080,1097)" d="m0 0h2l3 20 4 4 6-1 2-2 1-4 3-1 8 8 13 5 8 1 33 2h109l40-1h77l-1 2h-37l-69 2h-132l-57-3-9-1-2-3-2-15z" fill="#96110F"/>
<path transform="translate(1537,1670)" d="m0 0 2 3 1 154-9-1-1-6-1-5 2-21v-7l1-4v-18l2-69z" fill="#1C1A1D"/>
<path transform="translate(1541,663)" d="m0 0h1v102l-1 15-3 5-2-1-3-17-1-5-1-27v-19l1-24 1-19 2-6h1l1 7-1 1v24l-1 11v25l1 16 2 6 1-2v-7l-2-1-1-26 1-10 1-35z" fill="#32181A"/>
<path transform="translate(1618,1049)" d="m0 0h1v30l-1 114v244h-3v-300l1-69 1-16z" fill="#FEFEFE"/>
<path transform="translate(918,1711)" d="m0 0 2 1v113l-10 1-1-1h-15l-14-1-1-2 21-2 10 1 2-18 1-13 1-37 1-27 2-13z" fill="#201F21"/>
<path transform="translate(1e3 355)" d="m0 0h50l2 2-7 2-18 2-1 1-20 1-3 1v2l4-2 1 1 9-1h11v-1h5l1 2-11 5-11 1-4 1-1-2-1 5-3 16h-2l-2 2v-26z" fill="#1C1A1D"/>
<path transform="translate(695,1777)" d="m0 0 3 1v2l3 1 4 15v12l2 4 9 2 23 1 13 1 3 2-24 2h-35l-1-3z" fill="#201E21"/>
<path transform="translate(1844,915)" d="m0 0h1v42l-2 1-39 3-19 1-2 5-3 2h-5v-24h1v13l7-3 4-2h10l13-1 7-1h13l7 2 1 2h5z" fill="#868989"/>
<path transform="translate(1151,665)" d="m0 0h2l1 37v38l-1 26-1 5-2-3v-22h-2l-1-10v-65l1-3h2z" fill="#2A191C"/>
<path transform="translate(304,993)" d="m0 0h2v114l1 26v94l-1 12h-1l-1-7z" fill="#1C1B1D"/>
<path transform="translate(1841,749)" d="m0 0 3 1 1 23v30h-7l-2-1v-2l-4-1-2-4 3-2 2-8-1-15-2-10 5-6 1-2h2z" fill="#959899"/>
<path transform="translate(849,816)" d="m0 0h8l2 2-3 3-1 6 3 1-1 14h-1l-1-7v16l-1 3h2v7h-1v6l2 4-3 1 1 10 1 3-1 4 3 1v1h-9z" fill="#1C1A1D"/>
<path transform="translate(1541,1442)" d="m0 0h1l-1 74-1 297h-1v-369z" fill="#746C6E"/>
<path transform="translate(1541,354)" d="m0 0h4l-1 145-1 5h-1v-77l-2-6v-19l-1-5-1-10v-13l1-4-2-6 1-8z" fill="#4A1718"/>
<path transform="translate(1614,1095)" d="m0 0h1v45l-1 26-1 5h-1v-11l-1-16-4-7h-9v-2l-10-1-2-3-34-1v-1l43-3 17-1 1-5z" fill="#2E2F2F"/>
<path transform="translate(304,1304)" d="m0 0h1l1 151-1 5 2 1h-2l1 12 1 5-1 53h-1l-1-10-1-65v-110z" fill="#2E2E2F"/>
<path transform="translate(1462,821)" d="m0 0h2v17l1 13v41l-1 1-10 1h-62l-5-5v-37l1-28h1l1 25v41l3 2h69l-1-33v-17l1-11z" fill="#DE647F"/>
<path transform="translate(926,431)" d="m0 0h34l5 1v-1h13l-1 2-3 1-21 2-3-1-15 3-4 1 2 4-2 5-1 10-4 4-1-3v-27z" fill="#1C1A1D"/>
<path transform="translate(1452,355)" d="m0 0 10 2-3 2-10 3-15 2-14 7-4 3-11 2-3 6-3 19-3 10-2 5-2 4-1-8v-9l4 1 3-14v-7l4-11 2-2 8-2 18-6 18-4v-2z" fill="#1C1A1D"/>
<path transform="translate(1535,283)" d="m0 0h16l18 2 4 2v3l-15-2h-34l-16 3-14 4-8 5-1-2 8-5 7-3v-2l4-3 9-1z" fill="#1C1A1D"/>
<path transform="translate(778,1825)" d="m0 0h29l84 1 21 1v1h-7v2l-9 1-12-2-53-1h-45l-14-1v-1z" fill="#858888"/>
<path transform="translate(1392,355)" d="m0 0h60l-4 4-22 5-5 1-1 2-8 2-9 3-4 12-1 11-2 2v-15l3-11 4-5 3-2 21-4 6-2 5-1-46-1z" fill="#343535"/>
<path transform="translate(922,1670)" d="m0 0h1v39l-1 106-1 16-8 4h-2l2-7 6-3 1-49 1-102z" fill="#FEFEFE"/>
<path transform="translate(1310,355)" d="m0 0 4 1 1 10-1 62-2-1-2-9z" fill="#FEFEFE"/>
<path transform="translate(1030,363)" d="m0 0h5l1 2-11 5-11 1-4 1-1-2-1 5-3 16h-2l-2 2v-26l2-3h2v2l4-2 1 1 9-1h11z" fill="#1D1B1E"/>
<path transform="translate(1540,666)" d="m0 0h1v91l-2-2v-7l-2-1-1-26 1-10 1-35z" fill="#1C1A1D"/>
<path transform="translate(1613,1198)" d="m0 0h1l1 216 1 23-4-1 1-2-2-1 1-4 1-9-1-47z" fill="#1C1A1D"/>
<path transform="translate(1231,810)" d="m0 0 3 2-1 4-1 3-7-1v4h-2l-2-3-7 1h-3-21l3 3h-23l-5-1v-1l-7-2-3-2 2-2 5 2h26l36-1 5-2z" fill="#3A191A"/>
<path transform="translate(629,1730)" d="m0 0 9 1 13 4 8-1h23v1l-6 1h-12l1 2h14l3-1 1-2h7l-1 4-5 2h-4-15l-9-2h-28v-1h5l1-5-5-2z" fill="#1C1A1D"/>
<path transform="translate(1687,417)" d="m0 0 2 4 2-3v13 3l1 3v35l-4-1-1-9-1-22v-21z" fill="#323333"/>
<path transform="translate(848,740)" d="m0 0 7 2-1 3 4 2 3 6-7 7-4 7-1 45h2v2l-3 1z" fill="#959899"/>
<path transform="translate(1613,1120)" d="m0 0h1v15l-1-2-14-1-21-1-26-1v-1l43-3 17-1z" fill="#1C1A1D"/>
<path transform="translate(767,899)" d="m0 0h3l1 10v63h-3l-1-8z" fill="#FCFCFC"/>
<path transform="translate(1119,283)" d="m0 0h29v1l-21 3-17 6-2 2-7 3-3 3h-2l-2 4 1-6 6-5 1-4 10-5z" fill="#1C1A1D"/>
<path transform="translate(1544,816)" d="m0 0h52l1 2h-10v2l-4 2-16 1-6-1-11-1-1-3-5-1z" fill="#3B181A"/>
<path transform="translate(467,1824)" d="m0 0h17l112 3 8 1v1l-113-2-20-1-3 3-2-1z" fill="#868787"/>
<path transform="translate(1467,1129)" d="m0 0h72v1l-33 2h-32l-6 3-1 19-1 38h-1v-62z" fill="#3F1718"/>
<path transform="translate(305,1610)" d="m0 0 2 1v20l1 4-1 3v24l11 1 6 3v1h-20v-38z" fill="#1D1C1E"/>
<path transform="translate(1769,868)" d="m0 0h1l2 23 3 8 4 4v2l10 3 10 1 44 1 1 2h-22l-31-1-14-3-6-9-2-8z" fill="#F3F3F3"/>
<path transform="translate(865,572)" d="m0 0 3 4-1 9 1 6v17h-3v-3l-3-1-1-6 3-1v-2h2l-3-4-3 1v-8h2v-2l-2-1v-8l1 2z" fill="#1C1A1D"/>
<path transform="translate(1771,743)" d="m0 0h2l1 5-1 1-1 58 7 1v3l-8 1v6h-1v-7-2l-1-3 1-55z" fill="#515252"/>
<path transform="translate(1541,1442)" d="m0 0h1l-1 74-1 6h-1v-78z" fill="#696A6B"/>
<path transform="translate(1075,281)" d="m0 0 2 1v16l-1 38-1 15-3-1 1-12 1-54z" fill="#FEFEFE"/>
<path transform="translate(606,1766)" d="m0 0h1l-1 110-2 5h-1l1-26 1-80z" fill="#DFDEDF"/>
<path transform="translate(1172,660)" d="m0 0h59l1 1v9h-1l-1-8h-18l-33 1h-23l-1-2z" fill="#9C110E"/>
<path transform="translate(1e3 354)" d="m0 0h9v1h-8v12l-1 16-1 6-1 38-3 1 1-8 1-44 1-20z" fill="#FAF8F9"/>
<path transform="translate(778,1825)" d="m0 0h29l25 1-1 2h-45l-14-1v-1z" fill="#888687"/>
<path transform="translate(1817,958)" d="m0 0h16v1l-48 3-2 5-3 2h-5l2-8 1-1 13-1z" fill="#FEFEFE"/>
<path transform="translate(1537,1575)" d="m0 0 2 4v62h-1l-1-14h-1v-29z" fill="#1C1A1D"/>
<path transform="translate(1088,1824)" d="m0 0h23l68 1v1h-88l-4 3-4-1v-2l4 1z" fill="#8B8386"/>
<path transform="translate(1558,660)" d="m0 0h17l45 1v1l-38 1h-32l-7-1v-1z" fill="#9D110E"/>
<path transform="translate(1685,419)" d="m0 0 2 1v29l1 18 1 4 3 1v7l-3 1-2-4-2-25-1-21v-10z" fill="#1C1A1D"/>
<path transform="translate(1226,330)" d="m0 0 6 12 8 7 16 3v1h-11l-9-1-7-2-2-3z" fill="#E6DFE1"/>
<path transform="translate(1156,389)" d="m0 0h1v35h-1l-1-5-2-1-1-13 2-15z" fill="#1C1A1D"/>
<path transform="translate(1770,731)" d="m0 0 5 5 8 5 15 3v1h-21l-6-2z" fill="#FEFEFE"/>
<path transform="translate(1687,417)" d="m0 0 2 4 2-3v13 3l1 7-4 6h-1l-1-14v-14z" fill="#333434"/>
<path transform="translate(1231,810)" d="m0 0 3 2-1 4-1 3-7-1v4h-2l-2-3-7 1h-3-22v-2l35-2 5-2z" fill="#1C1A1D"/>
<path transform="translate(929,440)" d="m0 0 1 2 3-1-2 9-2 10-3 2-1-3v-17z" fill="#1E1D1F"/>
<path transform="translate(305,1477)" d="m0 0 2 1-1 53h-1l-1-10v-43z" fill="#201F21"/>
<path transform="translate(1445,818)" d="m0 0h19l3 4v6h-2v18h-1l-1-13 1-12-44-1v-1z" fill="#621414"/>
<path transform="translate(1661,354)" d="m0 0 7 1 4 3-1 3 11 3 3 6 1 17-2-2-2-15-1-4-12-3-7-1v-3l5-2-4-1z" fill="#373737"/>
<path transform="translate(861,623)" d="m0 0h2v2l5-1 1 3v19l-2 2-3-8 2-10-1-1-2 2-2-2z" fill="#1C1A1D"/>
<path transform="translate(1613,1373)" d="m0 0h1l1 41 1 23-4-1 1-2-2-1 1-4 1-9z" fill="#1C1A1D"/>
<path transform="translate(378,428)" d="m0 0 58 2v1h-54l-4-2z" fill="#BFC0C0"/>
<path transform="translate(1779,810)" d="m0 0h5l-5 4-7 8-1 3-1 16h-1v-22l2-7z" fill="#EAE9E9"/>
<path transform="translate(1170,344)" d="m0 0 4 1-1 6-13 3-1-3 2-3 2-2 6-1z" fill="#251D1F"/>
<path transform="translate(1375,1150)" d="m0 0h3l1 2v10l-2 7h-1l-1-6-4-3 3-1-1-7h2z" fill="#1C1A1D"/>
<path transform="translate(881,1824)" d="m0 0h28l1 1h9l-3 2h-25l-10-2z" fill="#3F3F3F"/>
<path transform="translate(1e3 354)" d="m0 0h9v1h-8v12l-1 16h-1l-1-8v-19z" fill="#DAC0C6"/>
<path transform="translate(1393,814)" d="m0 0 5 1 2 2 16 1v1l-27 1-1 4v-6z" fill="#2C181B"/>
<path transform="translate(1224,279)" d="m0 0h1l1 48-2-3-1-9v-13l-1-4z" fill="#413F40"/>
<path transform="translate(1607,1136)" d="m0 0 5 1 2 9v22l-2 3v-11l-1-16z" fill="#1C1A1D"/>
<path transform="translate(1537,1575)" d="m0 0 2 4v26l-3 1z" fill="#1D1B1E"/>
<path transform="translate(236,364)" d="m0 0 7 1 3 1v2l6-1v2l2-1h6v3l-4 1-6-2-11-2z" fill="#1D1B1E"/>
<path transform="translate(1052,359)" d="m0 0h13l-3 2-21 3h-4v-2l4-1 10-1z" fill="#1C1A1D"/>
<path transform="translate(998,1070)" d="m0 0h5l2 4-10 4-4-1-3-2 1-2 8 2z" fill="#333434"/>
<path transform="translate(455,1823)" d="m0 0h6l3 3 2 4v7l-4-5-7-8z" fill="#FEFEFE"/>
<path transform="translate(860,606)" d="m0 0 2 1v6h3v-2h2l2 3-1 6-5-3h-2l-1-3z" fill="#1C1A1D"/>
<path transform="translate(1128,676)" d="m0 0 1 4 1 5v8l-1 6-2-2-1-4v-14z" fill="#1C1A1D"/>
<path transform="translate(946,430)" d="m0 0h43v1l-23 1-4 1h-2v-2h-14z" fill="#464747"/>
<path transform="translate(1075,1823)" d="m0 0h6l4 7v5l-5-5z" fill="#FEFEFE"/>
<path transform="translate(305,1214)" d="m0 0 2 2v11l-1 12h-1l-1-7v-17z" fill="#222123"/>
<path transform="translate(467,1824)" d="m0 0h17l7 1v1h-20l-3 3-2-1z" fill="#908386"/>
<path transform="translate(1753,507)" d="m0 0h7l4 4v2l3 1-4 1-1-2-12-4z" fill="#1D1B1E"/>
<path transform="translate(683,1747)" d="m0 0 4 1 5 4 1 2v6l-4-4-6-8z" fill="#F8F5F6"/>
<path transform="translate(381,1793)" d="m0 0 2 3-1 19 4 1 1 3h-6z" fill="#1C1A1D"/>
<path transform="translate(683,1735)" d="m0 0h7l-1 4-5 2h-4v-3z" fill="#1D1B1E"/>
<path transform="translate(686,1745)" d="m0 0 7 2 2 2v4l-5-2-7-4z" fill="#2C282B"/>
<path transform="translate(1614,1421)" d="m0 0h1l1 16-4-1 1-2-2-1 1-4 1-7z" fill="#201E21"/>
<path transform="translate(863,680)" d="m0 0h2l1 8-4 4-1-1v-8z" fill="#1C1A1D"/>
<path transform="translate(861,693)" d="m0 0h1v13l-1 11h-1l-1-17z" fill="#1C1A1D"/>
<path transform="translate(1231,810)" d="m0 0 3 2-1 4-1 3h-5v-2l-3-1 5-2z" fill="#461819"/>
<path transform="translate(876,528)" d="m0 0h2l-2 4-3 7-2 6-2-4 2-5 3-7z" fill="#1C1A1D"/>
<path transform="translate(1775,945)" d="m0 0h1v13l15 1v1l-13 1-2 2-1-4z" fill="#8C8F8F"/>
<path transform="translate(1589,1132)" d="m0 0h6l2 1 9 1 1 2-9 1v-2l-10-1z" fill="#1C1A1D"/>
<path transform="translate(1390,1822)" d="m0 0 5 1 3 4 2 6-5-5z" fill="#EDE6E8"/>
<path transform="translate(1232,663)" d="m0 0 2 1 1 10-1 4h-2z" fill="#1C1A1D"/>
<path transform="translate(996,806)" d="m0 0 2 4-1 3h-10l4-2z" fill="#979698"/>
<path transform="translate(304,1460)" d="m0 0 3 1h-2l1 12 1 2-3 3z" fill="#1E1C1F"/>
<path transform="translate(1549,818)" d="m0 0h12l-1 3-3 1-7-1z" fill="#1C1A1D"/>
<path transform="translate(867,649)" d="m0 0 2 2 1 4-2 5-3-4-1-3z" fill="#1C1A1D"/>
<path transform="translate(1691,441)" d="m0 0h1v13l-1-4h-2l-1-4z" fill="#1C1A1D"/>
<path transform="translate(421,460)" d="m0 0 4 4v2l3 1v6l-3-3-4-8z" fill="#1C1A1D"/>
<path transform="translate(1538,1593)" d="m0 0h1v12l-3 1v-8z" fill="#201E21"/>
<path transform="translate(1621,811)" d="m0 0 2 1-2 4-4 1-7-1v-1l8-2z" fill="#4A1617"/>
<path transform="translate(334,637)" d="m0 0h1l2 9v5l-2-1-2-4z" fill="#1C1A1D"/>
</svg>
